<?xml version="1.0" encoding="UTF-8"?>
<svg id="Calque_2" data-name="Calque 2" xmlns="http://www.w3.org/2000/svg" viewBox="0 0 187.16 89.44">
  <defs>
    <style>
      .cls-1 {
        fill: #4a698a;
      }
    </style>
  </defs>
  <g id="ACTU_1" data-name="ACTU 1">
    <path class="cls-1" d="m2.61,34.12c.44-.6.89-1.18,1.31-1.79,2.46-3.6,5.82-5.69,10.19-6.15,4.7-.5,9.42-.3,14.13-.24,4.66.06,9.32.12,13.98.06,1.45-.02,2.93-.27,4.32-.66,1.11-.31,2.18-.92,3.17-1.55,3.35-2.13,6.65-4.33,9.98-6.48,2.83-1.83,5.78-3.42,8.92-4.65,3.5-1.37,7.03-1.79,10.66-.61.53.17,1.04.45,1.54.71,1.38.71,1.45,1.99.32,3.14-.99,1-2.22,1.6-3.56,1.97-2.94.81-4.99,2.72-6.14,5.44-1.45,3.41-.74,6.06,1.85,8.81.55.58,1.21,1.05,1.92,1.66,1.04-.33,2.16-.68,3.28-1.05,4.58-1.5,9.17-3.01,13.75-4.51,5.71-1.87,11.42-3.73,17.14-5.59,5.71-1.86,11.44-3.69,17.15-5.55,5.04-1.64,10.07-3.29,15.11-4.93,2.88-.94,5.75-1.89,8.64-2.79.59-.18,1-.5,1.31-1,.67-1.08,1.33-2.16,2.03-3.3.73-.05,1.48-.1,2.21-.16.26-.59.2-.94-.45-1.21-.96-.4-1.33-1.1-1.15-1.84.15-.64.83-1.08,1.79-1.1.42,0,.89-.02,1.24.15,1.01.5,1.08,1.92.15,2.58-.26.19-.58.3-.98.5.02.2.05.51.09.9,1.46-.05,2.86-.09,4.24-.13.34-.64.18-.96-.44-1.23-.92-.4-1.22-.99-1.07-1.74.14-.68.77-1.12,1.73-1.17.28-.01.57-.01.84.05.66.14,1.08.53,1.21,1.22.14.71-.16,1.2-.76,1.52-.29.15-.61.22-.96.34.07.36.12.63.19.97,1.44-.05,2.84-.09,4.3-.14.03-.34.05-.61.06-.85-1.42-.67-1.8-1.16-1.6-2.02.19-.84.88-1.26,1.97-1.22,1.02.04,1.63.49,1.77,1.29.16.94-.11,1.26-1.73,1.94.05.25.11.51.18.84,1.39-.04,2.75-.08,4.18-.12.19-.51.39-.86-.41-1.12-.84-.28-1.14-.96-.99-1.65.18-.86.63-1.22,1.61-1.28.23-.01.48-.04.71,0,.84.12,1.36.61,1.45,1.32.1.79-.3,1.34-1.2,1.66-.09.03-.19,0-.28.03-.08.03-.16.09-.31.18.04.24.08.5.14.84,1.45-.05,2.85-.09,4.22-.13.22-.48.33-.83-.3-1.03-.76-.24-1.17-.83-1.08-1.61.07-.63.39-1.19,1.12-1.3.85-.13,1.72-.26,2.36.51.53.64.38,1.67-.32,2.12-.31.19-.69.26-1.13.42,0,.21.01.48.02.88,1.33-.04,2.63-.05,3.92-.13.22-.01.42-.33.75-.62-.45-.23-.71-.33-.93-.48-.59-.4-.94-.93-.79-1.67.15-.74.65-1.11,1.39-1.2.32-.04.63-.1.95-.15.35.14.7.28,1.06.42.28.59.66,1.25.18,1.83-.41.5-1.04.81-1.65,1.26.03.14.09.4.15.64.37-.02.65-.04.93-.04,2.9,0,4.9,2.04,4.91,4.97,0,.17.07.34.11.51l-.84,2.11c-.17.13-.37.25-.51.41-1.58,1.7-4.84,2.38-7.06-.04-.16-.17-.32-.35-.58-.63-4.59,2.68-9.19,5.36-13.86,8.08-.39-.42-.76-.83-1.15-1.23-1.84-1.86-4.05-2.64-6.66-2.47-1.52.09-2.83.55-4.19,1.24-1.93.99-4.02,1.66-6.07,2.41-8.44,3.11-16.89,6.21-25.33,9.3-7.42,2.72-14.85,5.43-22.28,8.14-4.62,1.69-9.24,3.39-13.86,5.06-4.63,1.68-9.25,3.36-13.9,4.98-.94.33-1.35.85-1.52,1.79-.72,4.03,2.13,8.57,6.75,9,1.07.1,2.16.1,3.24.13.99.03,1.98-.02,2.96.07,2,.17,2.89,1.5,2.11,3.35-.39.93-1.03,1.82-1.74,2.54-2.9,2.96-6.58,3.95-10.6,3.85-2.16-.05-4.32-.3-6.48-.42-1.98-.11-3.95-.01-5.9.48-3,.76-5.33,2.58-7.48,4.68-1.28,1.25-2.46,2.59-3.67,3.91-4.4,4.79-9.43,8.71-15.46,11.25-3.16,1.33-6.44,2.14-9.93,1.78-3.24-.33-5.97-1.67-8.2-4.02-2.16-2.28-3.85-4.91-5.38-7.63-2.66-4.71-4.88-9.64-6.6-14.76C.81,56.5-.51,49.91.18,43.06c.13-1.3.48-2.59.71-3.88.05-.27.02-.56.03-.83.56-1.41,1.12-2.82,1.67-4.23Z"/>
  </g>
</svg>