<?xml version="1.0" encoding="UTF-8"?>
<svg id="Calque_2" data-name="Calque 2" xmlns="http://www.w3.org/2000/svg" xmlns:xlink="http://www.w3.org/1999/xlink" viewBox="0 0 110.93 110.93">
  <defs>
    <style>
      .cls-1 {
        fill: url(#linear-gradient-2);
      }

      .cls-2 {
        fill: #fff;
      }

      .cls-3 {
        fill: url(#linear-gradient-17);
      }

      .cls-4 {
        fill: #3f3f3f;
      }

      .cls-5 {
        fill: url(#linear-gradient-15);
      }

      .cls-6 {
        fill: url(#linear-gradient-18);
      }

      .cls-7 {
        fill: url(#linear-gradient-14);
      }

      .cls-8 {
        fill: url(#linear-gradient-20);
      }

      .cls-9 {
        fill: url(#linear-gradient-6);
      }

      .cls-10 {
        fill: url(#linear-gradient-11);
      }

      .cls-11 {
        filter: url(#drop-shadow-1);
      }

      .cls-12 {
        fill: url(#linear-gradient-10);
      }

      .cls-13 {
        fill: url(#linear-gradient-16);
      }

      .cls-14 {
        fill: #ff7462;
      }

      .cls-15 {
        fill: url(#linear-gradient-21);
      }

      .cls-16 {
        fill: url(#linear-gradient-5);
      }

      .cls-17 {
        fill: #4a698a;
      }

      .cls-18 {
        opacity: .12;
      }

      .cls-19 {
        fill: url(#linear-gradient-7);
      }

      .cls-20 {
        fill: url(#linear-gradient-9);
      }

      .cls-21 {
        fill: url(#linear-gradient-22);
      }

      .cls-22 {
        fill: url(#linear-gradient-3);
      }

      .cls-23 {
        fill: url(#linear-gradient);
      }

      .cls-24 {
        fill: url(#linear-gradient-23);
      }

      .cls-25 {
        fill: url(#linear-gradient-19);
      }

      .cls-26 {
        fill: url(#linear-gradient-4);
      }

      .cls-27 {
        fill: url(#linear-gradient-8);
      }

      .cls-28 {
        fill: url(#linear-gradient-12);
      }

      .cls-29 {
        fill: url(#linear-gradient-13);
      }
    </style>
    <filter id="drop-shadow-1" filterUnits="userSpaceOnUse">
      <feOffset dx="7" dy="7"/>
      <feGaussianBlur result="blur" stdDeviation="5"/>
      <feFlood flood-color="#09283f" flood-opacity=".75"/>
      <feComposite in2="blur" operator="in"/>
      <feComposite in="SourceGraphic"/>
    </filter>
    <linearGradient id="linear-gradient" x1="-1070.55" y1="-733.14" x2="-980.88" y2="-784.91" gradientTransform="translate(1006.09 -795.73) rotate(-78.34)" gradientUnits="userSpaceOnUse">
      <stop offset="0" stop-color="#070707"/>
      <stop offset=".31" stop-color="#a6a6a6"/>
      <stop offset=".51" stop-color="#4d4d4d"/>
      <stop offset=".62" stop-color="#232323"/>
      <stop offset=".64" stop-color="#2e2e2e"/>
      <stop offset=".67" stop-color="#4b4b4b"/>
      <stop offset=".72" stop-color="#7b7b7b"/>
      <stop offset=".75" stop-color="#a6a6a6"/>
      <stop offset=".85" stop-color="#070707"/>
      <stop offset=".96" stop-color="#070707"/>
      <stop offset="1" stop-color="gray"/>
    </linearGradient>
    <linearGradient id="linear-gradient-2" x1="-1069.32" y1="-733.85" x2="-982.12" y2="-784.2" xlink:href="#linear-gradient"/>
    <linearGradient id="linear-gradient-3" x1="-1068.09" y1="-734.56" x2="-983.35" y2="-783.49" xlink:href="#linear-gradient"/>
    <linearGradient id="linear-gradient-4" x1="-1066.86" y1="-735.27" x2="-984.58" y2="-782.78" xlink:href="#linear-gradient"/>
    <linearGradient id="linear-gradient-5" x1="-1065.63" y1="-735.98" x2="-985.81" y2="-782.07" xlink:href="#linear-gradient"/>
    <linearGradient id="linear-gradient-6" x1="-1064.4" y1="-736.69" x2="-987.04" y2="-781.36" xlink:href="#linear-gradient"/>
    <linearGradient id="linear-gradient-7" x1="-1063.17" y1="-737.4" x2="-988.27" y2="-780.65" xlink:href="#linear-gradient"/>
    <linearGradient id="linear-gradient-8" x1="-1061.94" y1="-738.11" x2="-989.49" y2="-779.94" xlink:href="#linear-gradient"/>
    <linearGradient id="linear-gradient-9" x1="-1060.71" y1="-738.82" x2="-990.72" y2="-779.23" xlink:href="#linear-gradient"/>
    <linearGradient id="linear-gradient-10" x1="-1059.48" y1="-739.53" x2="-991.96" y2="-778.52" xlink:href="#linear-gradient"/>
    <linearGradient id="linear-gradient-11" x1="-1058.25" y1="-740.24" x2="-993.19" y2="-777.81" xlink:href="#linear-gradient"/>
    <linearGradient id="linear-gradient-12" x1="-1057.02" y1="-740.95" x2="-994.42" y2="-777.1" xlink:href="#linear-gradient"/>
    <linearGradient id="linear-gradient-13" x1="-1055.79" y1="-741.66" x2="-995.65" y2="-776.39" xlink:href="#linear-gradient"/>
    <linearGradient id="linear-gradient-14" x1="-1054.56" y1="-742.38" x2="-996.88" y2="-775.68" xlink:href="#linear-gradient"/>
    <linearGradient id="linear-gradient-15" x1="-1053.33" y1="-743.09" x2="-998.11" y2="-774.97" xlink:href="#linear-gradient"/>
    <linearGradient id="linear-gradient-16" x1="-1052.1" y1="-743.8" x2="-999.34" y2="-774.26" xlink:href="#linear-gradient"/>
    <linearGradient id="linear-gradient-17" x1="-1050.87" y1="-744.51" x2="-1000.57" y2="-773.55" xlink:href="#linear-gradient"/>
    <linearGradient id="linear-gradient-18" x1="-1049.64" y1="-745.22" x2="-1001.8" y2="-772.84" xlink:href="#linear-gradient"/>
    <linearGradient id="linear-gradient-19" x1="-1048.41" y1="-745.93" x2="-1003.03" y2="-772.13" xlink:href="#linear-gradient"/>
    <linearGradient id="linear-gradient-20" x1="-1047.17" y1="-746.64" x2="-1004.27" y2="-771.41" xlink:href="#linear-gradient"/>
    <linearGradient id="linear-gradient-21" x1="-1045.94" y1="-747.35" x2="-1005.5" y2="-770.7" xlink:href="#linear-gradient"/>
    <linearGradient id="linear-gradient-22" x1="-1044.71" y1="-748.06" x2="-1006.73" y2="-769.99" xlink:href="#linear-gradient"/>
    <linearGradient id="linear-gradient-23" x1="-1013.38" y1="-744.32" x2="-1038.06" y2="-773.73" gradientTransform="translate(1196.59 626.48) rotate(-9.92)" gradientUnits="userSpaceOnUse">
      <stop offset="0" stop-color="#f2d28c"/>
      <stop offset="1" stop-color="#ebc567"/>
    </linearGradient>
  </defs>
  <g id="albumsCD_DVD">
    <g class="cls-11">
      <g>
        <circle class="cls-17" cx="55.47" cy="55.47" r="55.46" transform="translate(-12.44 94.73) rotate(-75.04)"/>
        <circle cx="55.47" cy="55.47" r="20.71" transform="translate(-22.97 55.47) rotate(-45)"/>
        <path class="cls-4" d="m55.19,52.49c1.64-.15,3.1,1.05,3.25,2.7.15,1.64-1.05,3.1-2.7,3.25-1.64.15-3.1-1.05-3.25-2.7-.15-1.64,1.05-3.1,2.7-3.25Z"/>
        <path d="m108.8,50.49c.67,7.2-.09,14.32-2.26,21.15-2.09,6.6-5.41,12.66-9.85,18.02-4.44,5.36-9.79,9.73-15.89,13.01-6.32,3.39-13.17,5.46-20.37,6.13s-14.32-.09-21.15-2.26c-6.6-2.09-12.66-5.41-18.02-9.85-5.36-4.44-9.73-9.79-13.01-15.89-3.39-6.32-5.46-13.17-6.13-20.37s.09-14.32,2.26-21.15c2.09-6.6,5.41-12.66,9.85-18.02,4.44-5.36,9.79-9.73,15.89-13.01,6.32-3.39,13.17-5.46,20.37-6.13,7.2-.67,14.32.09,21.15,2.26,6.6,2.09,12.66,5.41,18.02,9.85,5.36,4.44,9.73,9.79,13.01,15.89,3.39,6.32,5.46,13.17,6.13,20.37ZM3.15,60.34c2.69,28.85,28.35,50.13,57.19,47.43,28.85-2.69,50.13-28.35,47.43-57.19C105.09,21.74,79.43.46,50.59,3.15,21.74,5.84.46,31.5,3.15,60.34Z"/>
        <path class="cls-4" d="m75.31,53.61c1.02,10.94-7.05,20.68-18,21.7-10.94,1.02-20.68-7.05-21.7-18-1.02-10.94,7.05-20.68,18-21.7,10.94-1.02,20.68,7.05,21.7,18Zm-38.96,3.63c.98,10.54,10.35,18.31,20.89,17.33,10.54-.98,18.31-10.35,17.33-20.89-.98-10.54-10.35-18.31-20.89-17.33-10.54.98-18.31,10.35-17.33,20.89Z"/>
        <path class="cls-4" d="m60.94,54.96c.28,3.02-1.94,5.7-4.96,5.98-3.02.28-5.7-1.94-5.98-4.96-.28-3.02,1.94-5.7,4.96-5.98,3.02-.28,5.7,1.94,5.98,4.96Zm-9.6.9c.21,2.27,2.24,3.95,4.51,3.74,2.27-.21,3.95-2.24,3.74-4.51-.21-2.27-2.24-3.95-4.51-3.74-2.27.21-3.95,2.24-3.74,4.51Z"/>
        <path class="cls-2" d="m55.37,54.42c.58-.05,1.09.37,1.14.95.05.58-.37,1.09-.95,1.14-.58.05-1.09-.37-1.14-.95-.05-.58.37-1.09.95-1.14Z"/>
        <g>
          <path class="cls-23" d="m107,50.66c.65,6.96-.08,13.83-2.18,20.44-2.02,6.38-5.22,12.24-9.52,17.41-4.29,5.17-9.46,9.4-15.35,12.57-6.1,3.28-12.72,5.27-19.68,5.92-6.96.65-13.83-.08-20.44-2.18-6.38-2.02-12.24-5.22-17.41-9.52-5.17-4.29-9.4-9.46-12.57-15.35-3.28-6.1-5.27-12.72-5.92-19.68-.65-6.96.08-13.83,2.18-20.44,2.02-6.38,5.22-12.24,9.52-17.41,4.29-5.17,9.46-9.4,15.35-12.57,6.1-3.28,12.72-5.27,19.68-5.92,6.96-.65,13.83.08,20.44,2.18,6.38,2.02,12.24,5.22,17.41,9.52,5.17,4.29,9.4,9.46,12.57,15.35,3.28,6.1,5.27,12.72,5.92,19.68ZM4.31,60.24c2.63,28.21,27.72,49.02,55.93,46.39,28.21-2.63,49.02-27.72,46.39-55.93C103.99,22.49,78.9,1.68,50.69,4.31,22.49,6.94,1.68,32.03,4.31,60.24Z"/>
          <path class="cls-1" d="m105.58,50.79c.63,6.77-.08,13.45-2.12,19.88-1.97,6.2-5.08,11.9-9.25,16.93-4.17,5.03-9.2,9.15-14.93,12.23-5.94,3.19-12.38,5.13-19.14,5.76-6.77.63-13.45-.08-19.88-2.12-6.2-1.97-11.9-5.08-16.93-9.26-5.03-4.17-9.15-9.2-12.23-14.93-3.19-5.94-5.13-12.38-5.76-19.14-.63-6.77.08-13.45,2.12-19.88,1.97-6.2,5.08-11.9,9.25-16.93,4.17-5.03,9.2-9.15,14.93-12.23,5.94-3.19,12.38-5.13,19.14-5.76,6.77-.63,13.45.08,19.88,2.12,6.2,1.97,11.9,5.08,16.93,9.26,5.03,4.17,9.15,9.2,12.23,14.93,3.19,5.94,5.13,12.38,5.76,19.14ZM5.72,60.11c2.56,27.43,26.96,47.67,54.39,45.11,27.43-2.56,47.67-26.96,45.11-54.39-2.56-27.43-26.96-47.67-54.39-45.11C23.39,8.28,3.16,32.67,5.72,60.11Z"/>
          <path class="cls-22" d="m104.17,50.92c.61,6.57-.08,13.07-2.06,19.31-1.91,6.03-4.94,11.56-8.99,16.45-4.06,4.89-8.94,8.89-14.51,11.88-5.77,3.1-12.03,4.98-18.6,5.6-6.57.61-13.07-.08-19.31-2.06-6.03-1.91-11.56-4.94-16.45-8.99-4.89-4.06-8.89-8.94-11.88-14.51-3.1-5.77-4.98-12.03-5.6-18.6-.61-6.57.08-13.07,2.06-19.31,1.91-6.03,4.94-11.56,8.99-16.45,4.06-4.89,8.94-8.89,14.51-11.88,5.77-3.1,12.03-4.98,18.6-5.6,6.57-.61,13.07.08,19.31,2.06,6.03,1.91,11.56,4.94,16.45,8.99,4.89,4.06,8.89,8.94,11.88,14.51,3.1,5.77,4.98,12.03,5.6,18.6ZM7.12,59.97c2.49,26.66,26.19,46.32,52.85,43.83,26.66-2.49,46.32-26.19,43.83-52.85-2.49-26.66-26.19-46.32-52.85-43.83C24.3,9.61,4.64,33.32,7.12,59.97Z"/>
          <path class="cls-26" d="m102.76,51.06c.6,6.38-.08,12.69-2,18.75-1.86,5.85-4.79,11.23-8.73,15.98-3.94,4.75-8.68,8.63-14.09,11.54-5.6,3.01-11.68,4.84-18.06,5.43-6.38.6-12.69-.08-18.75-2-5.85-1.86-11.23-4.79-15.98-8.73-4.75-3.94-8.63-8.68-11.54-14.09-3.01-5.6-4.84-11.68-5.43-18.06-.6-6.38.08-12.69,2-18.75,1.86-5.85,4.79-11.23,8.73-15.98,3.94-4.75,8.68-8.63,14.09-11.54,5.6-3.01,11.68-4.84,18.06-5.43,6.38-.6,12.69.08,18.75,2,5.85,1.86,11.23,4.79,15.98,8.73,4.75,3.94,8.63,8.68,11.54,14.09,3.01,5.6,4.84,11.68,5.43,18.06ZM8.53,59.84c2.41,25.88,25.43,44.97,51.31,42.56,25.88-2.41,44.97-25.43,42.56-51.31-2.41-25.88-25.43-44.97-51.31-42.56C25.21,10.95,6.12,33.96,8.53,59.84Z"/>
          <path class="cls-16" d="m101.34,51.19c.58,6.19-.08,12.31-1.94,18.19-1.8,5.68-4.65,10.89-8.47,15.5-3.82,4.61-8.42,8.37-13.67,11.19-5.43,2.92-11.33,4.69-17.52,5.27-6.19.58-12.31-.08-18.19-1.94-5.68-1.8-10.89-4.65-15.5-8.47-4.61-3.82-8.37-8.42-11.19-13.67-2.92-5.43-4.69-11.33-5.27-17.52-.58-6.19.08-12.31,1.94-18.19,1.8-5.68,4.65-10.89,8.47-15.5,3.82-4.61,8.42-8.37,13.67-11.19,5.43-2.92,11.33-4.69,17.52-5.27,6.19-.58,12.31.08,18.19,1.94,5.68,1.8,10.89,4.65,15.5,8.47,4.61,3.82,8.37,8.42,11.19,13.67,2.92,5.43,4.69,11.33,5.27,17.52ZM9.94,59.71c2.34,25.1,24.67,43.62,49.77,41.28,25.1-2.34,43.62-24.67,41.28-49.77-2.34-25.1-24.67-43.62-49.77-41.28S7.6,34.61,9.94,59.71Z"/>
          <path class="cls-9" d="m99.93,51.32c.56,6-.07,11.93-1.88,17.63-1.75,5.5-4.51,10.56-8.21,15.02-3.7,4.46-8.16,8.11-13.24,10.85-5.27,2.83-10.98,4.55-16.98,5.11-6,.56-11.93-.07-17.63-1.88-5.5-1.75-10.56-4.51-15.02-8.21-4.46-3.7-8.11-8.16-10.85-13.24-2.83-5.27-4.55-10.98-5.11-16.98-.56-6,.07-11.93,1.88-17.63,1.75-5.5,4.51-10.56,8.21-15.02,3.7-4.46,8.16-8.11,13.24-10.85,5.27-2.83,10.98-4.55,16.98-5.11,6-.56,11.93.07,17.63,1.88,5.5,1.75,10.56,4.51,15.02,8.21,4.46,3.7,8.11,8.16,10.85,13.24,2.83,5.27,4.55,10.98,5.11,16.98ZM11.35,59.58c2.27,24.33,23.91,42.27,48.23,40,24.33-2.27,42.27-23.91,40-48.23-2.27-24.33-23.91-42.27-48.23-40C27.02,13.62,9.08,35.25,11.35,59.58Z"/>
          <path class="cls-19" d="m98.51,51.45c.54,5.81-.07,11.55-1.82,17.07-1.69,5.33-4.36,10.22-7.95,14.54-3.58,4.32-7.9,7.86-12.82,10.5-5.1,2.74-10.63,4.4-16.44,4.95-5.81.54-11.55-.07-17.07-1.82-5.33-1.69-10.22-4.36-14.54-7.95-4.32-3.58-7.86-7.9-10.5-12.82-2.74-5.1-4.4-10.63-4.95-16.44-.54-5.81.07-11.56,1.82-17.07,1.69-5.33,4.36-10.22,7.95-14.54,3.58-4.32,7.9-7.86,12.82-10.5,5.1-2.74,10.63-4.4,16.44-4.95,5.81-.54,11.56.07,17.07,1.82,5.33,1.69,10.22,4.36,14.54,7.95,4.32,3.58,7.86,7.9,10.5,12.82,2.74,5.1,4.4,10.63,4.95,16.44Zm-85.76,8c2.2,23.55,23.14,40.92,46.69,38.73,23.55-2.2,40.92-23.14,38.73-46.69-2.2-23.55-23.14-40.92-46.69-38.73C27.93,14.95,10.56,35.9,12.75,59.45Z"/>
          <path class="cls-27" d="m97.1,51.58c1.04,11.12-2.32,21.98-9.45,30.58-7.13,8.6-17.18,13.9-28.3,14.94-11.12,1.04-21.98-2.32-30.58-9.45-8.6-7.13-13.9-17.18-14.94-28.3-1.04-11.12,2.32-21.98,9.45-30.58,7.13-8.6,17.18-13.9,28.3-14.94,11.12-1.04,21.98,2.32,30.58,9.45,8.6,7.13,13.9,17.18,14.94,28.3Zm-82.94,7.73c2.12,22.77,22.38,39.58,45.16,37.45,22.77-2.12,39.58-22.38,37.45-45.16-2.12-22.77-22.38-39.58-45.16-37.45-22.77,2.12-39.58,22.38-37.45,45.16Z"/>
          <path class="cls-20" d="m95.68,51.71c1,10.74-2.24,21.23-9.13,29.54-6.89,8.3-16.6,13.43-27.34,14.43s-21.23-2.24-29.54-9.13c-8.3-6.89-13.43-16.6-14.43-27.34-1-10.74,2.24-21.23,9.13-29.54,6.89-8.3,16.6-13.43,27.34-14.43,10.74-1,21.23,2.24,29.54,9.13,8.3,6.89,13.43,16.6,14.43,27.34Zm-80.12,7.47c2.05,22,21.62,38.23,43.62,36.18,22-2.05,38.23-21.62,36.18-43.62-2.05-22-21.62-38.23-43.62-36.18-22,2.05-38.23,21.62-36.18,43.62Z"/>
          <path class="cls-12" d="m94.27,51.85c.97,10.37-2.16,20.49-8.81,28.5-6.65,8.01-16.01,12.96-26.38,13.92-10.37.97-20.49-2.16-28.5-8.81-8.01-6.65-12.96-16.01-13.92-26.38-.97-10.37,2.16-20.49,8.81-28.5s16.01-12.96,26.38-13.92c10.37-.97,20.49,2.16,28.5,8.81,8.01,6.65,12.96,16.01,13.92,26.38Zm-77.29,7.21c1.98,21.22,20.86,36.88,42.08,34.9,21.22-1.98,36.88-20.86,34.9-42.08-1.98-21.22-20.86-36.88-42.08-34.9-21.22,1.98-36.88,20.86-34.9,42.08Z"/>
          <path class="cls-10" d="m92.86,51.98c.93,9.99-2.08,19.74-8.49,27.46-6.4,7.72-15.43,12.49-25.42,13.42-9.99.93-19.74-2.08-27.46-8.49-7.72-6.4-12.49-15.43-13.42-25.42-.93-9.99,2.08-19.74,8.49-27.46,6.4-7.72,15.43-12.49,25.42-13.42,9.99-.93,19.74,2.08,27.46,8.49,7.72,6.4,12.49,15.43,13.42,25.42Zm-74.47,6.95c1.91,20.45,20.09,35.53,40.54,33.62,20.45-1.91,35.53-20.09,33.62-40.54-1.91-20.45-20.09-35.53-40.54-33.62-20.45,1.91-35.53,20.09-33.62,40.54Z"/>
          <path class="cls-28" d="m91.44,52.11c.9,9.61-2,18.99-8.16,26.42-6.16,7.43-14.85,12.01-24.46,12.91-9.61.9-18.99-2-26.42-8.16-7.43-6.16-12.01-14.85-12.91-24.46-.9-9.61,2-18.99,8.16-26.42,6.16-7.43,14.85-12.01,24.46-12.91,9.61-.9,18.99,2,26.42,8.16,7.43,6.16,12.01,14.85,12.91,24.46Zm-71.65,6.68c1.83,19.67,19.33,34.18,39,32.35,19.67-1.83,34.18-19.33,32.35-39-1.83-19.67-19.33-34.18-39-32.35-19.67,1.83-34.18,19.33-32.35,39Z"/>
          <path class="cls-29" d="m90.03,52.24c.86,9.23-1.92,18.25-7.84,25.38-5.92,7.14-14.26,11.54-23.5,12.4-9.23.86-18.25-1.92-25.38-7.84-7.14-5.92-11.54-14.26-12.4-23.5-.86-9.23,1.92-18.25,7.84-25.38,5.92-7.14,14.26-11.54,23.5-12.4,9.23-.86,18.25,1.92,25.38,7.84,7.14,5.92,11.54,14.26,12.4,23.5Zm-68.83,6.42c1.76,18.89,18.57,32.83,37.46,31.07,18.89-1.76,32.83-18.57,31.07-37.46-1.76-18.89-18.57-32.83-37.46-31.07-18.89,1.76-32.83,18.57-31.07,37.46Z"/>
          <path class="cls-7" d="m88.61,52.37c.83,8.85-1.85,17.5-7.52,24.34-5.68,6.84-13.68,11.07-22.53,11.89-8.85.83-17.5-1.85-24.34-7.52-6.84-5.68-11.07-13.68-11.89-22.53-.83-8.85,1.85-17.5,7.52-24.34,5.68-6.84,13.68-11.07,22.53-11.89,8.85-.83,17.5,1.85,24.34,7.52,6.84,5.68,11.07,13.68,11.89,22.53Zm-66.01,6.16c1.69,18.12,17.8,31.48,35.92,29.79,18.12-1.69,31.48-17.8,29.79-35.92-1.69-18.12-17.8-31.48-35.92-29.79-18.12,1.69-31.48,17.8-29.79,35.92Z"/>
          <path class="cls-5" d="m87.2,52.51c.79,8.48-1.77,16.75-7.2,23.31-5.43,6.55-13.1,10.6-21.57,11.39-8.48.79-16.75-1.77-23.31-7.2-6.55-5.43-10.6-13.1-11.39-21.57-.79-8.48,1.77-16.75,7.2-23.31,5.43-6.55,13.1-10.6,21.57-11.39,8.48-.79,16.75,1.77,23.31,7.2,6.55,5.43,10.6,13.1,11.39,21.57Zm-63.19,5.89c1.62,17.34,17.04,30.14,34.38,28.52,17.34-1.62,30.14-17.04,28.52-34.38-1.62-17.34-17.04-30.14-34.38-28.52s-30.14,17.04-28.52,34.38Z"/>
          <path class="cls-13" d="m85.79,52.64c.76,8.1-1.69,16.01-6.88,22.27-5.19,6.26-12.51,10.12-20.61,10.88-8.1.76-16.01-1.69-22.27-6.88-6.26-5.19-10.12-12.51-10.88-20.61-.76-8.1,1.69-16.01,6.88-22.27,5.19-6.26,12.51-10.12,20.61-10.88,8.1-.76,16.01,1.69,22.27,6.88,6.26,5.19,10.12,12.51,10.88,20.61Zm-60.36,5.63c1.54,16.57,16.28,28.79,32.85,27.24,16.57-1.54,28.79-16.28,27.24-32.85-1.54-16.57-16.28-28.79-32.85-27.24-16.57,1.54-28.79,16.28-27.24,32.85Z"/>
          <path class="cls-3" d="m84.37,52.77c.72,7.72-1.61,15.26-6.56,21.23-4.95,5.97-11.93,9.65-19.65,10.37-7.72.72-15.26-1.61-21.23-6.56-5.97-4.95-9.65-11.93-10.37-19.65s1.61-15.26,6.56-21.23c4.95-5.97,11.93-9.65,19.65-10.37,7.72-.72,15.26,1.61,21.23,6.56,5.97,4.95,9.65,11.93,10.37,19.65Zm-57.54,5.37c1.47,15.79,15.52,27.44,31.31,25.97,15.79-1.47,27.44-15.52,25.97-31.31-1.47-15.79-15.52-27.44-31.31-25.97-15.79,1.47-27.44,15.52-25.97,31.31Z"/>
          <path class="cls-6" d="m82.96,52.9c.68,7.34-1.53,14.51-6.24,20.19-4.71,5.68-11.35,9.18-18.69,9.87-7.34.68-14.51-1.53-20.19-6.24-5.68-4.71-9.18-11.35-9.86-18.69-.68-7.34,1.53-14.51,6.24-20.19,4.71-5.68,11.35-9.18,18.69-9.87,7.34-.68,14.51,1.53,20.19,6.24,5.68,4.71,9.18,11.35,9.87,18.69Zm-54.72,5.1c1.4,15.01,14.75,26.09,29.77,24.69,15.01-1.4,26.09-14.75,24.69-29.77s-14.75-26.09-29.77-24.69c-15.01,1.4-26.09,14.75-24.69,29.77Z"/>
          <path class="cls-25" d="m81.54,53.03c.65,6.97-1.45,13.77-5.92,19.15-4.47,5.38-10.76,8.71-17.73,9.36-6.97.65-13.77-1.45-19.15-5.92-5.38-4.47-8.71-10.76-9.36-17.73-.65-6.97,1.45-13.77,5.92-19.15,4.47-5.38,10.76-8.71,17.73-9.36,6.97-.65,13.77,1.45,19.15,5.92,5.38,4.47,8.71,10.76,9.36,17.73Zm-51.9,4.84c1.33,14.24,13.99,24.74,28.23,23.41,14.24-1.33,24.74-13.99,23.41-28.23-1.33-14.24-13.99-24.74-28.23-23.41-14.24,1.33-24.74,13.99-23.41,28.23Z"/>
          <path class="cls-8" d="m80.13,53.17c1.27,13.6-8.76,25.69-22.36,26.96-13.6,1.27-25.69-8.76-26.96-22.36-1.27-13.6,8.76-25.69,22.36-26.96,13.6-1.27,25.69,8.76,26.96,22.36Zm-49.08,4.58c1.26,13.46,13.23,23.39,26.69,22.14,13.46-1.26,23.39-13.23,22.14-26.69-1.26-13.46-13.23-23.39-26.69-22.14-13.46,1.26-23.39,13.23-22.14,26.69Z"/>
          <path class="cls-15" d="m78.71,53.3c1.2,12.82-8.26,24.22-21.08,25.42-12.82,1.2-24.22-8.26-25.42-21.08-1.2-12.82,8.26-24.22,21.08-25.42,12.82-1.2,24.22,8.26,25.42,21.08Zm-46.26,4.31c1.18,12.69,12.47,22.04,25.15,20.86,12.69-1.18,22.04-12.47,20.86-25.15-1.18-12.69-12.47-22.04-25.15-20.86-12.69,1.18-22.04,12.47-20.86,25.15Z"/>
          <path class="cls-21" d="m77.3,53.43c1.12,12.04-7.76,22.75-19.8,23.87-12.04,1.12-22.75-7.76-23.87-19.8-1.12-12.04,7.76-22.75,19.8-23.87,12.04-1.12,22.75,7.76,23.87,19.8Zm-43.43,4.05c1.11,11.91,11.7,20.7,23.61,19.58,11.91-1.11,20.7-11.7,19.58-23.61-1.11-11.91-11.7-20.7-23.61-19.58-11.91,1.11-20.7,11.7-19.58,23.61Z"/>
        </g>
      </g>
      <g>
        <circle class="cls-24" cx="55.47" cy="55.47" r="19.19" transform="translate(-16.51 86.65) rotate(-68.42)"/>
        <g class="cls-18">
          <path d="m55.05,61.47l-3.87,2.45v.18s4.06-.34,4.06-.34l.38,4.58-12.32,1.03s-.38-2.45-.6-5.09c-.32-3.87,1.29-5.78,3.84-5.99,2.55-.21,3.56,1.3,3.56,1.3l4.5-3.39.44,5.28Zm-7.07,2.36c-.05-.62-.53-1.02-1.06-.98-.53.04-.93.52-.88,1.14l.04.53,1.94-.16-.04-.53Z"/>
          <path d="m54.27,48.95c.34,4.05-2.25,7.1-5.85,7.4-3.61.3-6.66-2.28-7-6.33-.34-4.05,2.24-7.1,5.85-7.4,3.61-.3,6.66,2.28,7,6.33Zm-8.54.71c.09,1.06,1.04,1.86,2.27,1.76,1.23-.1,2.04-1.06,1.95-2.11-.09-1.06-1.04-1.86-2.27-1.76-1.23.1-2.04,1.06-1.95,2.11Z"/>
          <path d="m57.52,61.97c-.28-3.34,1.53-5.09,1.53-5.09l3.52,1.83s-.88,1.14-.78,2.37c.1,1.23,1.06,2.04,2.29,1.94,1.23-.1,2.04-1.06,1.94-2.29-.1-1.23-1.16-2.21-1.16-2.21l3.17-2.39s2.07,1.42,2.35,4.77c.31,3.7-2.27,6.75-5.88,7.05-3.61.3-6.66-2.28-6.97-5.98Z"/>
          <path d="m62.7,46.48l5.85-4.21.44,5.28-4.72,2.87,4.93-.41.38,4.58-12.32,1.03-.38-4.58,4.93-.41-5.1-1.7-.44-5.28,6.44,2.83Z"/>
        </g>
        <g>
          <path class="cls-14" d="m56.21,48.34c-.33.11-.65.24-.97.4-.31.16-.62.35-.9.56-.57.43-1.07.98-1.43,1.62-.18.32-.32.66-.42,1.01-.03.09-.05.17-.07.26l-.03.13-.02.13c-.02.09-.03.18-.04.26l-.02.13v.14s-.02.14-.02.14v.11s0,.11,0,.11v.05s0,.03,0,.03v.06c0,.08,0,.17,0,.25,0,.08,0,.17.01.25.02.34.06.68.13,1.02.07.32.16.65.28.97-.15.05-.3.11-.45.16-.71.25-1.42.5-2.12.74-.27-.25-.55-.5-.84-.75-.47-.41-.98-.81-1.55-1.15-.28-.17-.58-.33-.89-.47-.31-.14-.63-.26-.96-.35-.16-.05-.33-.09-.5-.12-.17-.03-.33-.07-.5-.09-.17-.03-.34-.04-.5-.05-.17,0-.34-.02-.5-.02-.33,0-.66.01-.99.04-.32.03-.65.07-.96.13-1.27.23-2.45.63-3.6,1.09l-.88.35.42.85h0s.02.04.02.04v.03s.04.05.04.05l.05.08c.04.05.07.11.11.16.07.1.15.2.22.29.15.19.32.37.48.54.34.34.71.64,1.11.9.79.53,1.69.87,2.61,1.03.92.16,1.84.13,2.73-.02.44-.07.88-.18,1.3-.3.11-.03.21-.07.32-.1.11-.03.2-.07.31-.1l.61-.21c.41-.14.82-.29,1.23-.44.59.53,1.2,1.09,1.89,1.59.52.38,1.07.73,1.66,1.02.29.14.6.28.9.39.15.06.31.11.47.16.16.05.31.1.47.14.63.17,1.28.28,1.92.33l.25.02h.12s.08.01.11.01h.22s.13.01.13.01h.12c.33,0,.66,0,.99-.04.66-.07,1.33-.21,1.98-.46.64-.25,1.26-.6,1.79-1.06.54-.45.99-1,1.34-1.59.35-.6.61-1.24.77-1.89.17-.66.25-1.33.25-1.99,0-.46-.04-.93-.11-1.39.12-.02.23-.05.35-.07.8-.17,1.61-.34,2.4-.41.39-.04.78-.05,1.14-.03.18.01.35.03.5.07.07.02.14.04.21.06h.02s0,0,0,0h0s.02,0,.02,0l.07.03s.04.02.06.03l.05.02c.61.27,1.14.72,1.48,1.28.17.28.29.59.35.9.03.16.05.32.05.48,0,.06,0,.12,0,.17-.3-.66-.99-1.1-1.76-1.02-.96.09-1.67.94-1.58,1.91s.94,1.67,1.91,1.58c.15-.01.29-.05.42-.09.24,0,.47-.06.69-.14.22-.08.44-.2.64-.34.4-.29.73-.71.93-1.19.1-.24.16-.5.2-.76.04-.26.04-.52.02-.78-.04-.52-.19-1.03-.43-1.49-.24-.46-.55-.88-.94-1.23-.38-.35-.82-.63-1.28-.83l-.1-.04s-.07-.03-.09-.03l-.07-.03h-.02s-.04-.02-.04-.02l-.05-.02c-.14-.05-.27-.08-.41-.11-.26-.05-.51-.08-.76-.09-.49-.02-.95.01-1.39.06-.45.05-.89.12-1.32.19-.43.08-.86.16-1.28.27-.13.03-.26.07-.38.1,0,0,0,0,0,0-.03-.08-.06-.16-.09-.24-.03-.08-.06-.16-.1-.23-.07-.16-.14-.31-.23-.47l-.02-.03v-.02s-.04-.05-.04-.05l-.05-.1-.08-.13s-.05-.08-.07-.12c-.1-.15-.2-.3-.32-.44-.23-.28-.48-.54-.76-.77-.56-.45-1.19-.79-1.85-1.02-.66-.22-1.35-.34-2.04-.34-.34,0-.69.02-1.03.07-.34.05-.68.13-1.01.24Zm-16.78,7.23s0,0,0,0h0s0,0,0,0h0s0,0,0,0Zm8.03,2.21l-.6.18c-.1.03-.2.06-.3.09-.1.03-.19.05-.29.08-.39.1-.79.17-1.18.22-.79.09-1.58.06-2.32-.12-.37-.09-.73-.22-1.06-.38-.34-.17-.65-.37-.94-.6-.29-.23-.55-.5-.78-.78-.01-.01-.02-.03-.03-.04.76-.26,1.52-.48,2.28-.62,1.09-.2,2.17-.21,3.15.08.99.28,1.87.88,2.73,1.63.02.02.04.03.06.05-.24.08-.48.15-.72.23Zm14.95-1.29c-.13.5-.32.98-.57,1.42-.26.43-.58.82-.96,1.14-.38.32-.81.57-1.28.76-.47.18-.98.3-1.51.35-.26.03-.53.04-.8.03h-.1s-.01,0-.01,0c0,0,0,0,0,0h-.03s-.06,0-.06,0h-.22s-.08-.01-.11-.01h-.1s-.2-.02-.2-.02c-.55-.04-1.09-.14-1.61-.28-.13-.03-.26-.07-.39-.11-.13-.04-.26-.08-.38-.13-.25-.09-.5-.2-.74-.32-.48-.24-.95-.53-1.39-.86-.35-.26-.7-.55-1.04-.85l1.65-.61c.18-.07.36-.13.54-.2.04.07.08.13.12.19.4.61.96,1.12,1.61,1.46.16.08.33.16.5.22.17.06.34.11.52.15.35.08.7.11,1.05.11.69,0,1.37-.19,1.94-.51.58-.31,1.07-.75,1.41-1.28-.58.23-1.14.4-1.69.49-.55.09-1.08.09-1.58,0-.25-.04-.49-.11-.71-.2-.23-.09-.44-.21-.63-.34-.34-.24-.62-.54-.84-.9.05-.02.11-.04.16-.05.4-.14.8-.27,1.2-.4l.6-.19.6-.19c.81-.25,1.62-.48,2.43-.71l1.22-.33c.41-.11.81-.21,1.22-.32.11-.03.22-.05.33-.08.12.85.09,1.73-.12,2.55Zm-4.18-6.65c1.01,0,2.02.34,2.76.95.18.15.35.32.5.51.07.09.14.19.21.29l.09.14.05.1.03.05v.02s.02.02.02.02c.05.1.11.22.16.34.03.06.05.12.08.18.01.03.02.06.04.09-.12.04-.24.08-.36.11-.41.13-.81.27-1.21.41-.4.14-.8.29-1.2.43-.8.29-1.59.6-2.38.91l-.59.23-.59.23c-.4.15-.79.3-1.19.45-.08.03-.16.06-.23.09-.07-.22-.13-.45-.16-.68-.04-.25-.06-.5-.07-.76,0-.06,0-.13,0-.2,0-.07,0-.13,0-.2v-.05s0-.01,0-.01c0,0,0,0,0,0h0s0-.13,0-.13v-.11s.02-.08.02-.08v-.08s.02-.09.02-.09v-.09s.03-.09.03-.09c0-.06.02-.12.04-.18l.02-.09.02-.09c.06-.23.14-.45.24-.66.2-.42.49-.8.86-1.1.19-.15.39-.28.61-.4.22-.11.45-.2.69-.27.48-.14.99-.2,1.5-.19Z"/>
          <path class="cls-14" d="m41.56,58.23s0,0,0,.01h0c.18.9-3.52-.35-1.3,7.95.76-.26.85-1.23,1.2-1.91,0,0-.05.51-.23.96.75-.35.76-1.06,1.01-1.76,0,0,.05.38-.08.88.72-.42.8-1.02,1.02-1.87,0,0,.05.38-.03.88.66-.61.59-1.18.63-2.05,0,0,.11.48.12,1.07.64-.71.42-1.2.35-1.99,0,0,.17.46.26,1.04.52-.7.38-.96.33-1.58,0,0,.09.23.16.56.19-.48.16-.95.06-1.43l-3.51-.75Zm-1.2,6.03c0,.39-.08.61,0,1.44,0,0-.3-1.23-.27-1.75,0,0,.26-.08.26.31Z"/>
          <path class="cls-14" d="m44.61,54.08c0-.5-.05-.96-.33-1.4,0,.33-.05.58-.05.58-.07-.62.02-.9-.62-1.49.01.58-.07,1.07-.07,1.07-.07-.8.05-1.31-.71-1.89.09.58.08,1.07.08,1.07-.19-.85-.23-1.42-1-1.9.17.47.2.86.2.86-.38-.79-.57-1.37-1.35-1.65.22.47.24.85.24.85-.37-.64-.52-1.34-1.32-1.54.26.41.4.9.4.9-.48-.61-.74-1.54-1.54-1.65-.64,8.57,2.71,6.12,2.7,7.04l-.05-.53s.05.54.05.55l3.36-.85Zm-5.81-3.96c-.13-.51-.06-1.77-.06-1.77.07.83.19,1.03.26,1.41.07.39-.2.36-.2.36Z"/>
        </g>
        <g>
          <g>
            <path class="cls-4" d="m57.45,69.65l.91-.09c-.19.28-.29.49-.25.88.04.45.46.81.96.76.5-.05.85-.48.81-.93-.04-.38-.17-.57-.41-.81l.91-.09c.22.21.35.5.38.85.08.9-.48,1.82-1.6,1.93-1.12.1-1.85-.69-1.93-1.6-.03-.35.04-.67.22-.91Z"/>
            <path class="cls-4" d="m58.55,65.55c1.12-.1,1.84.66,1.93,1.56.08.9-.49,1.79-1.61,1.89-1.12.1-1.84-.66-1.93-1.56-.08-.9.48-1.79,1.61-1.89Zm.23,2.5c.5-.05.85-.41.81-.86-.04-.45-.45-.74-.96-.69-.5.05-.85.41-.81.86.04.45.45.74.96.69Z"/>
            <path class="cls-4" d="m59.11,62.3l.83-.08.23,2.43-3.38.32-.09-.93,2.55-.24-.14-1.5Z"/>
            <path class="cls-4" d="m58.8,59.03l.83-.08.23,2.43-3.38.32-.09-.93,2.55-.24-.14-1.5Z"/>
            <path class="cls-4" d="m57.41,57.37l-.12-1.32.71-.07.12,1.32.55-.05-.14-1.5.81-.08.23,2.43-3.38.32-.23-2.43.78-.07.14,1.5.54-.05Z"/>
            <path class="cls-4" d="m55.86,52.63l.91-.09c-.19.28-.29.49-.25.88.04.45.46.81.96.76.5-.05.85-.48.81-.93-.04-.38-.17-.57-.41-.81l.91-.09c.22.21.35.5.38.85.08.9-.48,1.82-1.6,1.93-1.12.1-1.85-.69-1.93-1.6-.03-.35.04-.67.22-.91Z"/>
            <path class="cls-4" d="m56.25,50.24l2.53-.24.09.93-2.53.24.09.98-.83.08-.27-2.89.83-.08.09.98Z"/>
            <path class="cls-4" d="m57.68,46.99l-.05-.56.83-.08.19,2.05-.83.08-.05-.56-1.72.16.05.56-.83.08-.19-2.05.83-.08.05.56,1.72-.16Z"/>
            <path class="cls-4" d="m56.38,42.35c1.12-.1,1.84.66,1.93,1.56.08.9-.49,1.79-1.61,1.89-1.12.1-1.84-.66-1.93-1.56-.08-.9.49-1.79,1.61-1.89Zm.23,2.5c.5-.05.85-.41.81-.86-.04-.45-.45-.74-.96-.69s-.85.41-.81.86c.04.45.45.74.96.69Z"/>
            <path class="cls-4" d="m57.81,38.83l-1.55,1.94,1.66-.15.09.93-3.43.32-.03-.33,1.58-1.95-1.69.16-.09-.93,3.43-.32.03.33Z"/>
          </g>
          <g>
            <path class="cls-4" d="m55.3,71.57l1.35-.13.09.93-3.38.32-.13-1.43c-.06-.67.25-1.39,1.05-1.47.5-.05.87.23,1.03.66l1.15-1.05.11,1.13-1.26,1.04Zm-.52.05c.03-.11.05-.25.03-.39-.03-.29-.16-.5-.41-.48-.28.03-.32.25-.3.54l.04.39.63-.06Z"/>
            <path class="cls-4" d="m54.44,66.05c1.12-.1,1.84.66,1.93,1.56.08.9-.48,1.79-1.61,1.89-1.12.1-1.84-.66-1.93-1.56-.08-.9.48-1.79,1.61-1.89Zm.23,2.5c.5-.05.85-.41.81-.86-.04-.45-.45-.74-.96-.69-.5.05-.85.41-.81.86.04.45.45.74.96.69Z"/>
            <path class="cls-4" d="m52.68,63.15l.91-.09c-.19.28-.29.49-.25.88.04.45.46.81.96.76.5-.05.85-.48.81-.93-.04-.38-.17-.57-.41-.81l.91-.09c.22.21.35.5.38.85.08.9-.48,1.82-1.6,1.93-1.12.1-1.85-.69-1.93-1.6-.03-.35.04-.67.22-.91Z"/>
            <path class="cls-4" d="m54.77,61.36l.92-.09.09.93-3.38.32-.09-.93,1.24-.12-1.34-.9-.1-1.12,1.5,1.07,1.87-1.54.11,1.18-1.2.92.38.27Z"/>
            <path class="cls-4" d="m53.27,58.34l-.02.61-1.3-.33.08-.72,1.25.44Z"/>
            <path class="cls-4" d="m55.09,54.28l-1.55,1.94,1.66-.16.09.93-3.43.32-.03-.33,1.58-1.95-1.69.16-.09-.93,3.43-.32.03.33Z"/>
            <path class="cls-4" d="m52.77,52.95l-.02.61-1.3-.33.08-.72,1.25.44Z"/>
            <path class="cls-4" d="m53.36,50.8l1.35-.13.09.93-3.38.32-.13-1.43c-.06-.67.25-1.39,1.05-1.47.5-.05.87.23,1.03.66l1.16-1.06.11,1.13-1.26,1.04Zm-.52.05c.03-.11.05-.25.03-.39-.03-.29-.16-.5-.41-.48-.28.03-.32.25-.3.54l.04.39.63-.06Z"/>
            <path class="cls-4" d="m52.5,45.29c1.12-.1,1.84.66,1.93,1.56.08.9-.49,1.79-1.61,1.89-1.12.1-1.84-.66-1.93-1.56-.08-.9.48-1.79,1.61-1.89Zm.23,2.5c.5-.05.85-.41.81-.86-.04-.45-.45-.74-.96-.69-.5.05-.85.41-.81.86.04.45.45.74.96.69Z"/>
            <path class="cls-4" d="m53.07,42.14l.83-.08.23,2.43-3.38.32-.09-.93,2.55-.24-.14-1.5Z"/>
            <path class="cls-4" d="m52.78,38.97l.83-.08.23,2.43-3.38.32-.09-.93,2.55-.24-.14-1.5Z"/>
          </g>
        </g>
      </g>
    </g>
  </g>
</svg>