<?xml version="1.0" encoding="UTF-8"?>
<svg xmlns="http://www.w3.org/2000/svg" xmlns:xlink="http://www.w3.org/1999/xlink" viewBox="0 0 359.5 360.04">
  <defs>
    <style>
      .cls-1 {
        fill: url(#linear-gradient-2);
      }

      .cls-2 {
        fill: #262626;
      }

      .cls-3 {
        fill: #fff;
      }

      .cls-4 {
        fill: url(#linear-gradient-17);
      }

      .cls-5 {
        fill: #3f3f3f;
      }

      .cls-6 {
        fill: url(#linear-gradient-15);
      }

      .cls-7 {
        fill: url(#linear-gradient-18);
      }

      .cls-8 {
        fill: url(#linear-gradient-14);
      }

      .cls-9 {
        fill: url(#linear-gradient-20);
      }

      .cls-10 {
        fill: url(#linear-gradient-6);
      }

      .cls-11 {
        isolation: isolate;
      }

      .cls-12 {
        fill: url(#linear-gradient-11);
      }

      .cls-13 {
        filter: url(#drop-shadow-1);
      }

      .cls-14 {
        fill: url(#linear-gradient-10);
      }

      .cls-15 {
        fill: url(#Dégradé_sans_nom_145);
        mix-blend-mode: multiply;
      }

      .cls-16 {
        fill: url(#linear-gradient-16);
      }

      .cls-17 {
        fill: #ff7462;
      }

      .cls-18 {
        fill: url(#linear-gradient-21);
      }

      .cls-19 {
        fill: url(#linear-gradient-5);
      }

      .cls-20 {
        opacity: .12;
      }

      .cls-21 {
        fill: url(#linear-gradient-7);
      }

      .cls-22 {
        fill: url(#linear-gradient-9);
      }

      .cls-23 {
        fill: url(#linear-gradient-22);
      }

      .cls-24 {
        fill: url(#linear-gradient-3);
      }

      .cls-25 {
        fill: url(#linear-gradient);
      }

      .cls-26 {
        fill: url(#linear-gradient-23);
      }

      .cls-27 {
        fill: url(#linear-gradient-19);
      }

      .cls-28 {
        fill: url(#linear-gradient-4);
      }

      .cls-29 {
        fill: url(#linear-gradient-8);
      }

      .cls-30 {
        fill: url(#linear-gradient-12);
      }

      .cls-31 {
        fill: url(#linear-gradient-13);
      }
    </style>
    <filter id="drop-shadow-1" filterUnits="userSpaceOnUse">
      <feOffset dx="7" dy="7"/>
      <feGaussianBlur result="blur" stdDeviation="5"/>
      <feFlood flood-color="#09283f" flood-opacity=".75"/>
      <feComposite in2="blur" operator="in"/>
      <feComposite in="SourceGraphic"/>
    </filter>
    <linearGradient id="linear-gradient" x1="-.81" y1="234.49" x2="288.14" y2="67.67" gradientTransform="translate(3.77 291.48) rotate(-78.34)" gradientUnits="userSpaceOnUse">
      <stop offset="0" stop-color="#070707"/>
      <stop offset=".31" stop-color="#a6a6a6"/>
      <stop offset=".51" stop-color="#4d4d4d"/>
      <stop offset=".62" stop-color="#232323"/>
      <stop offset=".64" stop-color="#2e2e2e"/>
      <stop offset=".67" stop-color="#4b4b4b"/>
      <stop offset=".72" stop-color="#7b7b7b"/>
      <stop offset=".75" stop-color="#a6a6a6"/>
      <stop offset=".85" stop-color="#070707"/>
      <stop offset=".96" stop-color="#070707"/>
      <stop offset="1" stop-color="gray"/>
    </linearGradient>
    <linearGradient id="linear-gradient-2" x1="3.16" y1="232.2" x2="284.17" y2="69.96" xlink:href="#linear-gradient"/>
    <linearGradient id="linear-gradient-3" x1="7.12" y1="229.91" x2="280.21" y2="72.25" xlink:href="#linear-gradient"/>
    <linearGradient id="linear-gradient-4" x1="11.09" y1="227.63" x2="276.24" y2="74.54" xlink:href="#linear-gradient"/>
    <linearGradient id="linear-gradient-5" x1="15.05" y1="225.34" x2="272.28" y2="76.83" xlink:href="#linear-gradient"/>
    <linearGradient id="linear-gradient-6" x1="19.02" y1="223.05" x2="268.32" y2="79.11" xlink:href="#linear-gradient"/>
    <linearGradient id="linear-gradient-7" x1="22.98" y1="220.76" x2="264.35" y2="81.4" xlink:href="#linear-gradient"/>
    <linearGradient id="linear-gradient-8" x1="26.94" y1="218.47" x2="260.4" y2="83.69" xlink:href="#linear-gradient"/>
    <linearGradient id="linear-gradient-9" x1="30.9" y1="216.19" x2="256.43" y2="85.98" xlink:href="#linear-gradient"/>
    <linearGradient id="linear-gradient-10" x1="34.87" y1="213.9" x2="252.47" y2="88.27" xlink:href="#linear-gradient"/>
    <linearGradient id="linear-gradient-11" x1="38.83" y1="211.61" x2="248.5" y2="90.55" xlink:href="#linear-gradient"/>
    <linearGradient id="linear-gradient-12" x1="42.8" y1="209.32" x2="244.54" y2="92.84" xlink:href="#linear-gradient"/>
    <linearGradient id="linear-gradient-13" x1="46.76" y1="207.03" x2="240.57" y2="95.13" xlink:href="#linear-gradient"/>
    <linearGradient id="linear-gradient-14" x1="50.73" y1="204.74" x2="236.61" y2="97.42" xlink:href="#linear-gradient"/>
    <linearGradient id="linear-gradient-15" x1="54.69" y1="202.45" x2="232.64" y2="99.71" xlink:href="#linear-gradient"/>
    <linearGradient id="linear-gradient-16" x1="58.66" y1="200.16" x2="228.68" y2="102" xlink:href="#linear-gradient"/>
    <linearGradient id="linear-gradient-17" x1="62.62" y1="197.87" x2="224.71" y2="104.29" xlink:href="#linear-gradient"/>
    <linearGradient id="linear-gradient-18" x1="66.59" y1="195.58" x2="220.75" y2="106.58" xlink:href="#linear-gradient"/>
    <linearGradient id="linear-gradient-19" x1="70.55" y1="193.29" x2="216.78" y2="108.87" xlink:href="#linear-gradient"/>
    <linearGradient id="linear-gradient-20" x1="74.53" y1="190.99" x2="212.8" y2="111.17" xlink:href="#linear-gradient"/>
    <linearGradient id="linear-gradient-21" x1="78.5" y1="188.71" x2="208.83" y2="113.46" xlink:href="#linear-gradient"/>
    <linearGradient id="linear-gradient-22" x1="82.46" y1="186.42" x2="204.87" y2="115.74" xlink:href="#linear-gradient"/>
    <linearGradient id="linear-gradient-23" x1="183.43" y1="198.47" x2="103.9" y2="103.69" gradientTransform="translate(13.23 57.23) rotate(-9.92)" gradientUnits="userSpaceOnUse">
      <stop offset="0" stop-color="#f2d28c"/>
      <stop offset="1" stop-color="#ebc567"/>
    </linearGradient>
    <radialGradient id="Dégradé_sans_nom_145" data-name="Dégradé sans nom 145" cx="179.69" cy="179.69" fx="179.69" fy="179.69" r="207.13" gradientUnits="userSpaceOnUse">
      <stop offset=".46" stop-color="#00335c"/>
      <stop offset=".63" stop-color="#2b5a8b"/>
      <stop offset="1" stop-color="#96b9ff"/>
    </radialGradient>
  </defs>
  <g class="cls-11">
    <g id="Calque_2" data-name="Calque 2">
      <g id="lecteur_radio" data-name="lecteur radio">
        <g class="cls-13">
          <g>
            <circle class="cls-2" cx="180.77" cy="181.31" r="178.72" transform="translate(-75.26 180.93) rotate(-45)"/>
            <circle cx="180.77" cy="181.31" r="66.72" transform="translate(-75.26 180.93) rotate(-45)"/>
            <path class="cls-5" d="m179.87,171.72c5.3-.49,9.99,3.4,10.49,8.7.49,5.3-3.4,9.99-8.7,10.49-5.3.49-9.99-3.4-10.49-8.7-.49-5.3,3.4-9.99,8.7-10.49Z"/>
            <path d="m352.64,165.28c2.16,23.2-.28,46.13-7.27,68.16-6.75,21.27-17.43,40.81-31.74,58.07-14.31,17.26-31.54,31.36-51.2,41.93-20.35,10.94-42.44,17.58-65.64,19.75-23.2,2.16-46.13-.28-68.16-7.27-21.27-6.75-40.81-17.43-58.07-31.74-17.26-14.31-31.36-31.54-41.93-51.2-10.94-20.35-17.58-42.44-19.75-65.64s.28-46.13,7.27-68.16c6.75-21.27,17.43-40.81,31.74-58.07,14.31-17.26,31.54-31.36,51.2-41.93,20.35-10.94,42.44-17.58,65.64-19.75,23.2-2.16,46.13.28,68.16,7.27,21.27,6.75,40.81,17.43,58.07,31.74,17.26,14.31,31.36,31.54,41.93,51.2,10.94,20.35,17.58,42.44,19.75,65.64ZM12.2,197.03c8.67,92.95,91.34,161.52,184.29,152.85,92.95-8.67,161.52-91.34,152.85-184.29C340.67,72.64,258,4.07,165.05,12.74,72.1,21.41,3.53,104.08,12.2,197.03Z"/>
            <path class="cls-5" d="m244.72,175.34c3.29,35.27-22.73,66.63-57.99,69.92-35.27,3.29-66.63-22.73-69.92-57.99-3.29-35.27,22.73-66.63,57.99-69.92,35.27-3.29,66.63,22.73,69.92,57.99Zm-125.53,11.71c3.17,33.95,33.37,59,67.32,55.83,33.95-3.17,59-33.37,55.83-67.32-3.17-33.95-33.37-59-67.32-55.83-33.95,3.17-59,33.37-55.83,67.32Z"/>
            <path class="cls-5" d="m198.4,179.66c.91,9.72-6.27,18.37-15.99,19.28-9.72.91-18.37-6.27-19.28-15.99-.91-9.72,6.27-18.37,15.99-19.28,9.72-.91,18.37,6.27,19.28,15.99Zm-30.93,2.88c.68,7.33,7.2,12.74,14.53,12.05,7.33-.68,12.74-7.2,12.05-14.53-.68-7.33-7.2-12.74-14.53-12.05-7.33.68-12.74,7.2-12.05,14.53Z"/>
            <path class="cls-3" d="m180.45,177.93c1.86-.17,3.52,1.2,3.69,3.06.17,1.86-1.2,3.52-3.06,3.69-1.86.17-3.52-1.2-3.69-3.06-.17-1.86,1.2-3.52,3.06-3.69Z"/>
            <g>
              <path class="cls-25" d="m346.82,165.82c2.09,22.42-.27,44.57-7.02,65.85-6.52,20.55-16.84,39.43-30.66,56.1-13.83,16.67-30.47,30.3-49.46,40.51-19.66,10.57-41,16.99-63.42,19.08-22.42,2.09-44.57-.27-65.85-7.02-20.55-6.52-39.43-16.84-56.1-30.66-16.67-13.83-30.3-30.47-40.51-49.46-10.57-19.66-16.99-41-19.08-63.42-2.09-22.42.27-44.57,7.02-65.85,6.52-20.55,16.84-39.43,30.66-56.1,13.83-16.67,30.47-30.3,49.46-40.51,19.66-10.57,41-16.99,63.42-19.08,22.42-2.09,44.57.27,65.85,7.02,20.55,6.52,39.43,16.84,56.1,30.66,16.67,13.83,30.3,30.47,40.51,49.46,10.57,19.66,16.99,41,19.08,63.42ZM15.93,196.68c8.48,90.89,89.32,157.94,180.21,149.47,90.89-8.48,157.94-89.32,149.47-180.21C337.13,75.04,256.29,7.99,165.39,16.47,74.5,24.94,7.45,105.79,15.93,196.68Z"/>
              <path class="cls-1" d="m342.27,166.25c2.03,21.8-.26,43.35-6.83,64.05-6.34,19.99-16.37,38.35-29.82,54.56-13.45,16.21-29.63,29.47-48.11,39.4-19.13,10.28-39.88,16.52-61.68,18.55-21.8,2.03-43.35-.26-64.05-6.83-19.99-6.34-38.35-16.37-54.56-29.82-16.21-13.45-29.47-29.63-39.4-48.11-10.28-19.13-16.52-39.88-18.55-61.68-2.03-21.8.26-43.35,6.83-64.05,6.34-19.99,16.37-38.35,29.82-54.56,13.45-16.21,29.63-29.47,48.11-39.4,19.13-10.28,39.88-16.52,61.68-18.55,21.8-2.03,43.35.26,64.05,6.83,19.99,6.34,38.35,16.37,54.56,29.82,16.21,13.45,29.47,29.63,39.4,48.11,10.28,19.13,16.52,39.88,18.55,61.68ZM20.46,196.26c8.24,88.39,86.86,153.6,175.26,145.36,88.39-8.24,153.6-86.86,145.36-175.26C332.83,77.97,254.21,12.76,165.82,21,77.42,29.25,12.22,107.87,20.46,196.26Z"/>
              <path class="cls-24" d="m337.71,166.67c1.98,21.19-.26,42.13-6.64,62.24-6.16,19.43-15.91,37.26-28.98,53.02-13.07,15.76-28.8,28.64-46.75,38.29-18.59,9.99-38.75,16.05-59.94,18.03-21.19,1.98-42.13-.26-62.24-6.64-19.43-6.16-37.26-15.91-53.02-28.98-15.76-13.07-28.64-28.8-38.29-46.75-9.99-18.59-16.05-38.75-18.03-59.94-1.98-21.19.26-42.13,6.64-62.24,6.16-19.43,15.91-37.26,28.98-53.02,13.07-15.76,28.8-28.64,46.75-38.29,18.59-9.99,38.75-16.05,59.94-18.03,21.19-1.98,42.13.26,62.24,6.64,19.43,6.16,37.26,15.91,53.02,28.98,15.76,13.07,28.64,28.8,38.29,46.75,9.99,18.59,16.05,38.75,18.03,59.94ZM25,195.84c8.01,85.89,84.41,149.25,170.3,141.24,85.89-8.01,149.25-84.41,141.24-170.3-8.01-85.89-84.41-149.25-170.3-141.24C80.35,33.55,16.99,109.94,25,195.84Z"/>
              <path class="cls-28" d="m333.15,167.1c1.92,20.57-.25,40.9-6.44,60.43-5.98,18.86-15.45,36.18-28.14,51.48-12.69,15.3-27.96,27.81-45.39,37.17-18.05,9.7-37.63,15.59-58.2,17.51-20.57,1.92-40.9-.25-60.43-6.44-18.86-5.98-36.18-15.45-51.48-28.14-15.3-12.69-27.81-27.96-37.17-45.39-9.7-18.05-15.59-37.63-17.51-58.2-1.92-20.57.25-40.9,6.44-60.43,5.98-18.86,15.45-36.18,28.14-51.48,12.69-15.3,27.96-27.81,45.39-37.17,18.05-9.7,37.63-15.59,58.2-17.51,20.57-1.92,40.9.25,60.43,6.44,18.86,5.98,36.18,15.45,51.48,28.14,15.3,12.69,27.81,27.96,37.17,45.39,9.7,18.05,15.59,37.63,17.51,58.2ZM29.53,195.41c7.78,83.39,81.95,144.91,165.34,137.13,83.39-7.78,144.91-81.95,137.13-165.34-7.78-83.39-81.95-144.91-165.34-137.13C83.27,37.85,21.76,112.02,29.53,195.41Z"/>
              <path class="cls-19" d="m328.59,167.52c1.86,19.96-.24,39.68-6.25,58.62-5.8,18.3-14.99,35.1-27.3,49.94-12.31,14.84-27.12,26.98-44.03,36.06-17.51,9.41-36.5,15.12-56.46,16.98-19.96,1.86-39.68-.24-58.62-6.25-18.3-5.8-35.1-14.99-49.94-27.3-14.84-12.31-26.98-27.12-36.06-44.03-9.41-17.51-15.12-36.5-16.98-56.46-1.86-19.96.24-39.68,6.25-58.62,5.8-18.3,14.99-35.1,27.3-49.94,12.31-14.84,27.13-26.98,44.03-36.06,17.51-9.41,36.5-15.12,56.46-16.98,19.96-1.86,39.68.24,58.62,6.25,18.3,5.8,35.1,14.99,49.94,27.3,14.84,12.31,26.98,27.12,36.06,44.03,9.41,17.51,15.12,36.5,16.98,56.46Zm-294.53,27.47c7.54,80.89,79.49,140.56,160.38,133.02,80.89-7.54,140.56-79.49,133.02-160.38-7.54-80.89-79.49-140.56-160.38-133.02C86.2,42.15,26.52,114.1,34.07,194.99Z"/>
              <path class="cls-10" d="m324.04,167.95c1.8,19.34-.23,38.46-6.06,56.82-5.62,17.73-14.53,34.02-26.46,48.4-11.93,14.38-26.29,26.14-42.68,34.95-16.97,9.12-35.38,14.66-54.72,16.46-19.34,1.8-38.46-.23-56.82-6.06-17.73-5.62-34.02-14.53-48.4-26.46-14.38-11.93-26.14-26.29-34.95-42.68-9.12-16.97-14.66-35.38-16.46-54.72-1.8-19.34.23-38.46,6.06-56.82,5.62-17.73,14.53-34.02,26.46-48.4,11.93-14.38,26.29-26.14,42.68-34.95,16.97-9.12,35.38-14.66,54.72-16.46,19.34-1.8,38.46.23,56.82,6.06,17.73,5.62,34.02,14.53,48.4,26.46,14.38,11.93,26.14,26.29,34.95,42.68,9.12,16.97,14.66,35.38,16.46,54.72Zm-285.43,26.62c7.31,78.39,77.03,136.22,155.42,128.91,78.39-7.31,136.22-77.03,128.91-155.42-7.31-78.39-77.03-136.22-155.42-128.91C89.12,46.46,31.29,116.18,38.6,194.57Z"/>
              <path class="cls-21" d="m319.48,168.37c1.75,18.73-.23,37.23-5.87,55.01-5.45,17.17-14.06,32.94-25.61,46.86-11.55,13.93-25.45,25.31-41.32,33.84-16.43,8.83-34.25,14.19-52.98,15.94-18.73,1.75-37.23-.23-55.01-5.87-17.17-5.45-32.94-14.06-46.86-25.61-13.93-11.55-25.31-25.45-33.84-41.32-8.83-16.43-14.19-34.25-15.94-52.98-1.75-18.73.23-37.23,5.87-55.01,5.45-17.17,14.06-32.94,25.61-46.86,11.55-13.93,25.45-25.31,41.32-33.84,16.43-8.83,34.25-14.19,52.98-15.94,18.73-1.75,37.23.23,55.01,5.87,17.17,5.45,32.94,14.06,46.86,25.62,13.93,11.55,25.31,25.45,33.84,41.32,8.83,16.43,14.19,34.25,15.94,52.98Zm-276.34,25.77c7.08,75.89,74.58,131.87,150.46,124.79,75.89-7.08,131.87-74.58,124.79-150.46-7.08-75.89-74.58-131.87-150.46-124.79-75.89,7.08-131.87,74.58-124.79,150.46Z"/>
              <path class="cls-29" d="m314.92,168.8c3.34,35.83-7.47,70.82-30.45,98.53-22.98,27.7-55.36,44.8-91.2,48.14-35.83,3.34-70.83-7.47-98.53-30.45-27.7-22.98-44.8-55.36-48.14-91.2-3.34-35.83,7.47-70.83,30.45-98.53,22.98-27.7,55.36-44.8,91.2-48.14,35.83-3.34,70.83,7.47,98.53,30.45,27.7,22.98,44.8,55.36,48.14,91.2Zm-267.25,24.92c6.84,73.39,72.12,127.53,145.51,120.68,73.39-6.84,127.53-72.12,120.68-145.51-6.84-73.39-72.12-127.53-145.51-120.68-73.39,6.84-127.53,72.12-120.68,145.51Z"/>
              <path class="cls-22" d="m310.37,169.22c3.23,34.62-7.22,68.42-29.41,95.18-22.2,26.76-53.48,43.28-88.1,46.5-34.62,3.23-68.42-7.22-95.18-29.41-26.76-22.2-43.28-53.48-46.51-88.1-3.23-34.62,7.22-68.42,29.41-95.18,22.2-26.76,53.48-43.28,88.1-46.51,34.62-3.23,68.42,7.22,95.18,29.41,26.76,22.2,43.28,53.48,46.5,88.1Zm-258.16,24.08c6.61,70.89,69.66,123.18,140.55,116.57,70.89-6.61,123.18-69.66,116.57-140.55-6.61-70.89-69.66-123.18-140.55-116.57-70.89,6.61-123.18,69.66-116.57,140.55Z"/>
              <path class="cls-14" d="m305.81,169.65c3.11,33.4-6.96,66.01-28.38,91.83-21.41,25.82-51.6,41.75-85,44.87-33.4,3.11-66.01-6.96-91.83-28.38-25.82-21.41-41.75-51.6-44.87-85-3.11-33.4,6.96-66.01,28.38-91.83,21.41-25.82,51.6-41.76,85-44.87,33.4-3.11,66.01,6.96,91.83,28.38s41.75,51.6,44.87,85Zm-249.06,23.23c6.38,68.39,67.2,118.83,135.59,112.46,68.39-6.38,118.83-67.2,112.46-135.59-6.38-68.39-67.2-118.83-135.59-112.46-68.39,6.38-118.83,67.2-112.46,135.59Z"/>
              <path class="cls-12" d="m301.25,170.07c3,32.18-6.71,63.61-27.34,88.49-20.63,24.88-49.72,40.23-81.9,43.23-32.18,3-63.61-6.71-88.49-27.34-24.88-20.63-40.23-49.72-43.23-81.9-3-32.18,6.71-63.61,27.34-88.49,20.63-24.88,49.72-40.23,81.9-43.23,32.18-3,63.61,6.71,88.49,27.34,24.88,20.63,40.23,49.72,43.23,81.9Zm-239.97,22.38c6.14,65.89,64.75,114.49,130.63,108.34,65.89-6.14,114.49-64.75,108.34-130.63-6.14-65.89-64.75-114.49-130.63-108.34-65.89,6.14-114.49,64.75-108.34,130.63Z"/>
              <path class="cls-30" d="m296.7,170.5c2.89,30.97-6.46,61.2-26.31,85.14-19.85,23.94-47.84,38.71-78.81,41.6-30.97,2.89-61.2-6.46-85.14-26.31-23.94-19.85-38.71-47.84-41.6-78.81-2.89-30.97,6.46-61.2,26.31-85.14,19.85-23.94,47.84-38.71,78.81-41.6,30.97-2.89,61.2,6.46,85.14,26.31,23.94,19.85,38.71,47.84,41.6,78.81Zm-230.88,21.53c5.91,63.38,62.29,110.14,125.67,104.23,63.39-5.91,110.14-62.29,104.23-125.67-5.91-63.38-62.29-110.14-125.67-104.23-63.38,5.91-110.14,62.29-104.23,125.67Z"/>
              <path class="cls-31" d="m292.14,170.92c2.77,29.75-6.2,58.8-25.28,81.79-19.07,23-45.96,37.19-75.71,39.96-29.75,2.77-58.8-6.2-81.79-25.28-23-19.07-37.19-45.96-39.96-75.71-2.77-29.75,6.2-58.8,25.28-81.79,19.07-23,45.96-37.19,75.71-39.96,29.75-2.77,58.8,6.2,81.79,25.28,23,19.07,37.19,45.96,39.96,75.71Zm-221.79,20.68c5.68,60.88,59.83,105.8,120.71,100.12,60.88-5.68,105.8-59.83,100.12-120.71-5.68-60.88-59.83-105.8-120.71-100.12-60.88,5.68-105.8,59.83-100.12,120.71Z"/>
              <path class="cls-8" d="m287.58,171.35c2.66,28.53-5.95,56.39-24.24,78.45-18.29,22.06-44.08,35.67-72.61,38.33-28.53,2.66-56.39-5.95-78.45-24.24-22.06-18.29-35.67-44.08-38.33-72.61-2.66-28.53,5.95-56.39,24.24-78.45,18.29-22.06,44.08-35.67,72.61-38.33,28.53-2.66,56.39,5.95,78.45,24.24,22.06,18.29,35.67,44.08,38.33,72.61Zm-212.7,19.84c5.44,58.38,57.37,101.45,115.76,96.01,58.38-5.44,101.45-57.37,96.01-115.76-5.44-58.38-57.37-101.45-115.76-96.01-58.38,5.44-101.45,57.37-96.01,115.76Z"/>
              <path class="cls-6" d="m283.03,171.77c2.55,27.31-5.69,53.98-23.21,75.1-17.51,21.11-42.2,34.15-69.51,36.69-27.31,2.55-53.98-5.69-75.1-23.21-21.12-17.51-34.15-42.2-36.69-69.51-2.55-27.31,5.69-53.98,23.21-75.1,17.51-21.11,42.2-34.15,69.51-36.69,27.31-2.55,53.98,5.69,75.1,23.21,21.12,17.51,34.15,42.2,36.69,69.51Zm-203.6,18.99c5.21,55.88,54.92,97.11,110.8,91.89,55.88-5.21,97.11-54.92,91.89-110.8-5.21-55.88-54.92-97.11-110.8-91.89-55.88,5.21-97.11,54.92-91.89,110.8Z"/>
              <path class="cls-16" d="m278.47,172.2c2.43,26.1-5.44,51.58-22.17,71.75-16.73,20.17-40.32,32.62-66.42,35.06-26.1,2.43-51.58-5.44-71.75-22.17-20.17-16.73-32.62-40.32-35.06-66.42-2.43-26.1,5.44-51.58,22.17-71.75,16.73-20.17,40.32-32.62,66.42-35.06,26.1-2.43,51.58,5.44,71.75,22.17,20.17,16.73,32.62,40.32,35.06,66.42Zm-194.51,18.14c4.98,53.38,52.46,92.76,105.84,87.78,53.38-4.98,92.76-52.46,87.78-105.84-4.98-53.38-52.46-92.76-105.84-87.78-53.38,4.98-92.76,52.46-87.78,105.84Z"/>
              <path class="cls-4" d="m273.91,172.62c2.32,24.88-5.19,49.17-21.14,68.41-15.95,19.23-38.44,31.1-63.32,33.42-24.88,2.32-49.17-5.19-68.41-21.14-19.23-15.95-31.1-38.44-33.42-63.32-2.32-24.88,5.19-49.17,21.14-68.41,15.95-19.23,38.44-31.1,63.32-33.42,24.88-2.32,49.17,5.19,68.41,21.14,19.23,15.95,31.1,38.44,33.42,63.32Zm-185.42,17.29c4.75,50.88,50,88.41,100.88,83.67,50.88-4.75,88.42-50,83.67-100.88-4.75-50.88-50-88.41-100.88-83.67-50.88,4.75-88.41,50-83.67,100.88Z"/>
              <path class="cls-7" d="m269.35,173.05c2.21,23.66-4.93,46.77-20.1,65.06-15.17,18.29-36.56,29.58-60.22,31.79-23.66,2.21-46.77-4.93-65.06-20.1-18.29-15.17-29.58-36.56-31.79-60.22-2.21-23.66,4.93-46.77,20.1-65.06,15.17-18.29,36.56-29.58,60.22-31.79,23.66-2.21,46.77,4.93,65.06,20.1,18.29,15.17,29.58,36.56,31.79,60.22Zm-176.33,16.44c4.51,48.38,47.54,84.07,95.92,79.56,48.38-4.51,84.07-47.54,79.56-95.92-4.51-48.38-47.54-84.07-95.92-79.56-48.38,4.51-84.07,47.54-79.56,95.92Z"/>
              <path class="cls-27" d="m264.8,173.47c2.09,22.45-4.68,44.36-19.07,61.71-14.39,17.35-34.68,28.06-57.12,30.15-22.44,2.09-44.36-4.68-61.71-19.07-17.35-14.39-28.06-34.68-30.15-57.12-2.09-22.45,4.68-44.36,19.07-61.71,14.39-17.35,34.68-28.06,57.12-30.15,22.45-2.09,44.36,4.68,61.71,19.07,17.35,14.39,28.06,34.68,30.15,57.12Zm-167.23,15.6c4.28,45.88,45.09,79.72,90.96,75.44,45.88-4.28,79.72-45.09,75.45-90.96-4.28-45.88-45.09-79.72-90.96-75.45-45.88,4.28-79.72,45.09-75.44,90.96Z"/>
              <path class="cls-9" d="m260.24,173.9c4.09,43.82-28.24,82.8-72.06,86.88-43.82,4.09-82.8-28.24-86.88-72.06-4.09-43.82,28.24-82.8,72.06-86.88,43.82-4.09,82.8,28.24,86.88,72.06Zm-158.14,14.75c4.05,43.38,42.63,75.38,86.01,71.33,43.38-4.05,75.38-42.63,71.33-86.01-4.05-43.38-42.63-75.38-86.01-71.33-43.38,4.05-75.38,42.63-71.33,86.01Z"/>
              <path class="cls-18" d="m255.68,174.32c3.85,41.31-26.62,78.05-67.93,81.9-41.31,3.85-78.05-26.62-81.9-67.93-3.85-41.31,26.62-78.05,67.93-81.9,41.31-3.85,78.05,26.62,81.9,67.93Zm-149.05,13.9c3.81,40.88,40.17,71.03,81.05,67.22,40.88-3.81,71.03-40.17,67.22-81.05-3.81-40.88-40.17-71.03-81.05-67.22-40.88,3.81-71.03,40.17-67.22,81.05Z"/>
              <path class="cls-23" d="m251.13,174.75c3.62,38.8-25,73.3-63.8,76.92-38.8,3.62-73.3-25-76.92-63.8-3.62-38.8,25-73.3,63.8-76.92,38.8-3.62,73.3,25,76.92,63.8Zm-139.96,13.05c3.58,38.38,37.71,66.69,76.09,63.11,38.38-3.58,66.69-37.71,63.11-76.09s-37.71-66.69-76.09-63.11c-38.38,3.58-66.69,37.71-63.11,76.09Z"/>
            </g>
          </g>
          <g>
            <circle class="cls-26" cx="180.77" cy="181.31" r="61.84" transform="translate(-54.31 282.74) rotate(-68.42)"/>
            <g class="cls-20">
              <path d="m179.41,200.66l-12.48,7.89.05.57,13.05-1.09,1.23,14.75-39.7,3.3s-1.23-7.89-1.94-16.4c-1.04-12.48,4.16-18.62,12.38-19.31,8.22-.68,11.49,4.18,11.49,4.18l14.51-10.92,1.42,17.02Zm-22.78,7.61c-.17-1.98-1.7-3.29-3.4-3.14-1.7.14-3,1.68-2.83,3.66l.14,1.7,6.24-.52-.14-1.7Z"/>
              <path d="m176.91,160.32c1.09,13.05-7.23,22.88-18.86,23.84-11.63.97-21.46-7.35-22.54-20.4-1.09-13.05,7.23-22.88,18.86-23.84,11.63-.97,21.46,7.35,22.54,20.4Zm-27.51,2.29c.28,3.4,3.36,6,7.33,5.67,3.97-.33,6.57-3.4,6.29-6.8-.28-3.4-3.35-6-7.32-5.67s-6.57,3.4-6.29,6.81Z"/>
              <path d="m187.37,202.28c-.9-10.78,4.92-16.4,4.92-16.4l11.34,5.91s-2.84,3.66-2.5,7.63c.33,3.97,3.4,6.57,7.37,6.24,3.97-.33,6.57-3.4,6.24-7.37-.33-3.97-3.73-7.11-3.73-7.11l10.21-7.7s6.66,4.58,7.56,15.36c.99,11.91-7.33,21.74-18.96,22.71-11.63.97-21.46-7.35-22.45-19.26Z"/>
              <path d="m204.06,152.35l18.86-13.56,1.42,17.01-15.22,9.26,15.88-1.32,1.23,14.75-39.7,3.3-1.23-14.75,15.88-1.32-16.45-5.48-1.42-17.02,20.75,9.12Z"/>
            </g>
            <g>
              <path class="cls-17" d="m183.15,158.34c-1.07.35-2.11.78-3.11,1.3-1.01.52-1.99,1.12-2.9,1.81-1.84,1.39-3.46,3.16-4.61,5.23-.58,1.03-1.03,2.12-1.37,3.24-.09.28-.16.56-.23.84l-.1.42-.08.43c-.06.28-.1.57-.13.85l-.05.43-.04.46-.03.46v.37s-.02.36-.02.36v.16s0,.1,0,.1v.2c0,.27,0,.54.02.81,0,.27.02.54.04.81.07,1.09.21,2.18.43,3.28.21,1.04.51,2.09.91,3.11-.49.18-.97.35-1.46.53-2.28.8-4.56,1.61-6.85,2.4-.88-.8-1.78-1.61-2.72-2.42-1.53-1.31-3.16-2.6-4.99-3.72-.91-.56-1.87-1.08-2.87-1.53-1-.45-2.04-.83-3.1-1.13-.53-.16-1.06-.28-1.6-.4-.54-.1-1.08-.21-1.62-.28-.54-.09-1.08-.12-1.62-.18-.54-.02-1.08-.07-1.61-.06-1.08-.02-2.13.04-3.19.13-1.05.11-2.08.24-3.1.43-4.08.74-7.91,2.03-11.61,3.51l-2.83,1.13,1.36,2.73h0s.06.12.06.12l.05.08.09.15.18.27c.12.17.23.34.35.51.23.33.47.64.72.94.5.61,1.02,1.18,1.56,1.73,1.09,1.09,2.29,2.06,3.56,2.91,2.55,1.69,5.46,2.81,8.41,3.32,2.96.5,5.94.41,8.79-.06,1.43-.23,2.82-.57,4.19-.97.34-.09.68-.21,1.02-.31.34-.11.65-.21.99-.33l1.95-.67c1.33-.46,2.66-.93,3.98-1.41,1.9,1.72,3.87,3.5,6.08,5.12,1.66,1.22,3.45,2.35,5.35,3.28.95.47,1.92.9,2.91,1.26.49.19,1,.35,1.5.52.51.15,1.01.31,1.52.44,2.04.54,4.11.89,6.19,1.07l.8.06.4.03c.13,0,.24.01.37.02l.72.03h.41s.4.02.4.02c1.06.01,2.13-.03,3.2-.13,2.14-.21,4.3-.67,6.38-1.48,2.07-.8,4.06-1.95,5.78-3.41,1.73-1.46,3.19-3.22,4.32-5.14,1.14-1.92,1.95-3.99,2.49-6.1.53-2.11.79-4.28.79-6.43,0-1.5-.12-2.99-.35-4.47.37-.07.74-.15,1.11-.22,2.59-.56,5.18-1.1,7.72-1.32,1.26-.12,2.51-.16,3.66-.08.57.04,1.12.11,1.61.21.24.05.46.12.66.19l.07.03h0s0,0,0,0l.06.02.24.09c.09.03.14.06.19.08l.16.07c1.98.88,3.66,2.32,4.75,4.12.54.9.94,1.89,1.14,2.91.1.51.16,1.03.16,1.55,0,.19,0,.37-.02.56-.96-2.14-3.2-3.53-5.67-3.3-3.1.29-5.39,3.04-5.1,6.14s3.04,5.38,6.14,5.1c.47-.04.92-.15,1.35-.3.76-.02,1.5-.18,2.22-.44.72-.26,1.42-.63,2.06-1.1,1.29-.93,2.35-2.29,2.98-3.84.32-.78.53-1.6.64-2.44.11-.84.14-1.69.07-2.53-.13-1.68-.62-3.32-1.37-4.82-.76-1.49-1.79-2.84-3.01-3.96-1.22-1.13-2.63-2.02-4.14-2.69l-.31-.13c-.1-.04-.21-.09-.28-.11l-.24-.09-.06-.02-.11-.04-.17-.06c-.45-.15-.88-.26-1.31-.35-.85-.17-1.66-.25-2.44-.29-1.57-.07-3.05.03-4.49.18-1.45.16-2.85.38-4.25.63-1.39.25-2.77.53-4.12.86-.41.1-.82.22-1.23.34,0,0,0,0,0,0-.09-.25-.19-.51-.29-.76-.1-.25-.21-.5-.32-.75-.22-.5-.45-.98-.73-1.51l-.05-.1-.04-.08-.09-.16-.17-.32-.25-.41c-.08-.12-.15-.25-.23-.37-.32-.49-.66-.97-1.02-1.42-.73-.91-1.55-1.74-2.45-2.48-1.79-1.47-3.83-2.56-5.96-3.27-2.13-.72-4.35-1.08-6.57-1.11-1.11-.01-2.22.05-3.32.22-1.1.16-2.19.43-3.25.78Zm-54.06,23.31s0-.01,0,0h0s0,0,0,0h0s0-.02,0-.02Zm25.86,7.12l-1.94.58c-.31.09-.66.19-.97.28-.31.08-.63.18-.94.25-1.26.31-2.53.55-3.8.69-2.54.29-5.08.19-7.47-.4-1.19-.3-2.34-.7-3.43-1.23-1.08-.54-2.1-1.18-3.03-1.93-.94-.74-1.78-1.6-2.52-2.52-.03-.04-.06-.08-.1-.12,2.44-.85,4.89-1.55,7.35-1.98,3.51-.64,7-.67,10.17.26,3.18.89,6.02,2.83,8.81,5.25.06.05.12.1.18.16-.77.25-1.54.49-2.31.73Zm48.18-4.17c-.41,1.62-1.02,3.17-1.85,4.57-.83,1.4-1.86,2.64-3.08,3.67-1.22,1.03-2.61,1.85-4.13,2.44-1.52.59-3.16.95-4.85,1.12-.85.09-1.71.12-2.58.11h-.33s-.03,0-.03,0c0,0,0,0,0,0h-.09s-.18-.01-.18-.01l-.72-.03c-.12,0-.25,0-.36-.02l-.32-.02-.64-.05c-1.76-.14-3.51-.45-5.19-.89-.42-.11-.84-.24-1.25-.36-.41-.14-.83-.27-1.23-.43-.81-.3-1.61-.65-2.39-1.03-1.56-.77-3.05-1.7-4.49-2.76-1.14-.83-2.26-1.76-3.37-2.73l5.3-1.95c.58-.21,1.16-.42,1.75-.63.13.21.25.42.39.63,1.29,1.95,3.09,3.62,5.18,4.7.52.27,1.06.5,1.6.71.55.2,1.1.36,1.66.49,1.12.25,2.26.36,3.38.35,2.24-.03,4.4-.62,6.26-1.63,1.86-1.01,3.44-2.42,4.55-4.11-1.88.74-3.67,1.3-5.45,1.58-1.77.28-3.49.29-5.1.02-.81-.13-1.58-.36-2.3-.66-.73-.3-1.4-.67-2.02-1.11-1.09-.78-2-1.76-2.71-2.88.17-.06.34-.12.51-.18,1.29-.44,2.58-.86,3.87-1.28l1.94-.62,1.95-.6c2.6-.8,5.21-1.55,7.82-2.28l3.92-1.07c1.31-.35,2.61-.68,3.92-1.02.35-.09.7-.17,1.05-.26.4,2.74.29,5.57-.38,8.21Zm-13.48-21.43c3.26.03,6.52,1.08,8.91,3.05.59.49,1.13,1.04,1.61,1.63.24.29.46.61.67.92l.27.45.17.32.09.16.04.08.03.06c.17.33.36.71.52,1.09.09.19.17.38.24.58.04.1.08.2.11.29-.38.12-.77.24-1.15.37-1.31.42-2.61.87-3.91,1.33-1.3.45-2.59.92-3.87,1.4-2.57.95-5.12,1.94-7.68,2.92l-1.91.74-1.91.73c-1.27.49-2.55.98-3.83,1.45-.25.09-.5.19-.76.28-.23-.71-.41-1.44-.53-2.2-.13-.8-.2-1.63-.22-2.46,0-.21,0-.42,0-.63,0-.21,0-.42.01-.63v-.16s0-.04,0-.04c0,.01,0,.01,0-.02v-.05s.03-.36.03-.36l.02-.35.03-.26.03-.26.04-.29.04-.29.05-.28c.03-.19.07-.38.11-.56l.06-.28.07-.28c.19-.73.45-1.44.77-2.12.64-1.35,1.58-2.57,2.78-3.55.6-.48,1.26-.92,1.97-1.28.71-.36,1.46-.64,2.24-.86,1.55-.44,3.19-.64,4.82-.63Z"/>
              <path class="cls-17" d="m135.96,190.23s0,.03,0,.04h.01c.58,2.91-11.33-1.14-4.19,25.62,2.45-.82,2.73-3.95,3.88-6.15,0,0-.15,1.64-.73,3.09,2.41-1.13,2.45-3.43,3.25-5.67,0,0,.16,1.22-.25,2.82,2.31-1.36,2.57-3.3,3.29-6.03,0,0,.15,1.24-.11,2.84,2.13-1.96,1.92-3.8,2.03-6.61,0,0,.34,1.55.4,3.44,2.07-2.3,1.37-3.85,1.13-6.42,0,0,.54,1.49.85,3.35,1.67-2.26,1.22-3.09,1.07-5.09,0,0,.28.75.5,1.8.6-1.55.52-3.05.2-4.62l-11.32-2.42Zm-3.86,19.42c.01,1.26-.27,1.96,0,4.64,0,0-.97-3.95-.86-5.65,0,0,.84-.25.85,1.01Z"/>
              <path class="cls-17" d="m145.8,176.84c.03-1.61-.17-3.09-1.05-4.51-.03,1.08-.16,1.87-.16,1.87-.23-2,.06-2.89-2-4.8.04,1.88-.21,3.45-.21,3.45-.24-2.57.16-4.23-2.29-6.1.29,1.87.25,3.46.25,3.46-.63-2.74-.75-4.59-3.21-6.12.55,1.53.64,2.77.64,2.77-1.22-2.55-1.83-4.4-4.35-5.32.69,1.5.76,2.73.76,2.73-1.2-2.06-1.66-4.31-4.24-4.98.84,1.32,1.29,2.9,1.29,2.9-1.54-1.95-2.39-4.97-4.95-5.33-2.07,27.62,8.73,19.72,8.7,22.68l-.17-1.72s.17,1.75.17,1.77l10.83-2.75Zm-18.71-12.74c-.43-1.65-.2-5.71-.2-5.71.22,2.68.63,3.31.85,4.56.22,1.24-.65,1.15-.65,1.15Z"/>
            </g>
            <g>
              <g>
                <path class="cls-5" d="m187.15,227.01l2.95-.27c-.62.91-.92,1.59-.81,2.82.13,1.44,1.48,2.61,3.1,2.46,1.63-.15,2.73-1.55,2.6-2.99-.12-1.23-.53-1.84-1.31-2.62l2.95-.27c.7.66,1.12,1.62,1.22,2.75.27,2.91-1.55,5.88-5.17,6.22-3.61.34-5.95-2.24-6.22-5.15-.1-1.12.13-2.14.7-2.92Z"/>
                <path class="cls-5" d="m190.7,213.81c3.61-.34,5.94,2.13,6.22,5.04.27,2.91-1.56,5.77-5.18,6.1s-5.94-2.13-6.21-5.04c-.27-2.91,1.56-5.77,5.17-6.1Zm.75,8.07c1.63-.15,2.75-1.32,2.62-2.76-.13-1.44-1.45-2.38-3.08-2.23-1.63.15-2.75,1.32-2.61,2.76.13,1.44,1.45,2.38,3.08,2.23Z"/>
                <path class="cls-5" d="m192.51,203.33l2.68-.25.73,7.81-10.9,1.02-.28-3,8.22-.77-.45-4.82Z"/>
                <path class="cls-5" d="m191.53,192.79l2.68-.25.73,7.81-10.9,1.02-.28-3,8.22-.77-.45-4.82Z"/>
                <path class="cls-5" d="m187.02,187.44l-.4-4.26,2.28-.21.4,4.26,1.78-.17-.45-4.82,2.6-.24.73,7.81-10.9,1.02-.73-7.81,2.52-.24.45,4.82,1.72-.16Z"/>
                <path class="cls-5" d="m182.04,172.18l2.95-.27c-.62.91-.92,1.59-.8,2.82.13,1.44,1.48,2.61,3.1,2.46,1.63-.15,2.73-1.55,2.59-2.99-.11-1.23-.53-1.84-1.31-2.62l2.95-.27c.7.66,1.12,1.62,1.22,2.74.27,2.91-1.55,5.88-5.17,6.22-3.61.34-5.95-2.24-6.22-5.15-.1-1.12.13-2.14.69-2.92Z"/>
                <path class="cls-5" d="m183.31,164.48l8.17-.76.28,2.99-8.17.76.29,3.16-2.68.25-.87-9.3,2.69-.25.29,3.16Z"/>
                <path class="cls-5" d="m187.91,154l-.17-1.81,2.69-.25.62,6.61-2.69.25-.17-1.81-5.53.52.17,1.81-2.68.25-.62-6.61,2.69-.25.17,1.81,5.53-.52Z"/>
                <path class="cls-5" d="m183.72,139.06c3.61-.34,5.94,2.13,6.22,5.04.27,2.91-1.56,5.77-5.18,6.1-3.61.34-5.94-2.13-6.21-5.04-.27-2.91,1.56-5.77,5.17-6.1Zm.75,8.07c1.63-.15,2.75-1.32,2.62-2.76-.13-1.44-1.46-2.38-3.08-2.23s-2.75,1.32-2.61,2.76c.13,1.44,1.45,2.38,3.08,2.23Z"/>
                <path class="cls-5" d="m188.33,127.71l-4.98,6.26,5.35-.5.28,3-11.06,1.03-.1-1.06,5.08-6.27-5.45.51-.28-3,11.07-1.03.1,1.06Z"/>
              </g>
              <g>
                <path class="cls-5" d="m180.22,233.19l4.35-.41.28,2.99-10.9,1.02-.43-4.6c-.2-2.16.81-4.49,3.38-4.73,1.61-.15,2.81.76,3.33,2.13l3.72-3.4.34,3.65-4.07,3.34Zm-1.68.16c.1-.36.16-.81.11-1.27-.09-.95-.53-1.61-1.31-1.54-.89.08-1.04.81-.95,1.75l.12,1.25,2.04-.19Z"/>
                <path class="cls-5" d="m177.45,215.41c3.61-.34,5.94,2.13,6.21,5.04.27,2.91-1.56,5.77-5.18,6.1-3.61.34-5.94-2.13-6.21-5.04-.27-2.91,1.56-5.77,5.18-6.1Zm.75,8.07c1.63-.15,2.75-1.32,2.61-2.76-.13-1.44-1.45-2.38-3.08-2.23-1.63.15-2.75,1.32-2.62,2.76.13,1.44,1.45,2.38,3.08,2.23Z"/>
                <path class="cls-5" d="m171.8,206.06l2.95-.27c-.62.91-.92,1.59-.8,2.82.13,1.44,1.47,2.61,3.1,2.46,1.63-.15,2.73-1.55,2.59-2.99-.12-1.23-.53-1.84-1.31-2.62l2.95-.27c.7.66,1.12,1.62,1.22,2.75.27,2.91-1.55,5.88-5.17,6.22-3.61.34-5.95-2.24-6.22-5.15-.1-1.12.13-2.14.7-2.92Z"/>
                <path class="cls-5" d="m178.53,200.31l2.98-.28.28,3-10.9,1.02-.28-2.99,4-.37-4.31-2.91-.34-3.6,4.84,3.46,6.02-4.95.36,3.81-3.86,2.96,1.21.87Z"/>
                <path class="cls-5" d="m173.68,190.56l-.08,1.98-4.19-1.06.24-2.32,4.02,1.4Z"/>
                <path class="cls-5" d="m179.57,177.47l-4.98,6.26,5.35-.5.28,3-11.06,1.03-.1-1.06,5.08-6.27-5.45.51-.28-2.99,11.06-1.03.1,1.06Z"/>
                <path class="cls-5" d="m172.07,173.2l-.08,1.98-4.19-1.06.24-2.32,4.02,1.4Z"/>
                <path class="cls-5" d="m173.98,166.29l4.34-.4.28,2.99-10.9,1.02-.43-4.6c-.2-2.16.81-4.49,3.38-4.73,1.61-.15,2.81.76,3.33,2.13l3.72-3.4.34,3.65-4.07,3.34Zm-1.68.16c.1-.36.16-.81.11-1.27-.09-.94-.53-1.61-1.31-1.54-.89.08-1.04.81-.95,1.75l.12,1.25,2.03-.19Z"/>
                <path class="cls-5" d="m171.21,148.51c3.61-.34,5.94,2.13,6.21,5.04.27,2.91-1.56,5.77-5.18,6.1-3.61.34-5.94-2.13-6.21-5.04-.27-2.91,1.56-5.77,5.18-6.1Zm.75,8.07c1.63-.15,2.75-1.32,2.61-2.76-.13-1.44-1.45-2.38-3.08-2.23-1.63.15-2.75,1.32-2.62,2.76.13,1.44,1.45,2.39,3.08,2.23Z"/>
                <path class="cls-5" d="m173.05,138.36l2.68-.25.73,7.82-10.9,1.02-.28-2.99,8.22-.77-.45-4.82Z"/>
                <path class="cls-5" d="m172.1,128.14l2.68-.25.73,7.81-10.9,1.02-.28-3,8.22-.77-.45-4.82Z"/>
              </g>
            </g>
          </g>
        </g>
        <circle class="cls-15" cx="179.69" cy="179.69" r="179.69"/>
      </g>
    </g>
  </g>
</svg>